<svg width="1589" height="1974" viewBox="0 0 1589 1974" fill="none" xmlns="http://www.w3.org/2000/svg">
<g clip-path="url(#clip0_16_1467)">
<rect width="1588" height="1973" transform="translate(0.875 0.862762)" fill="black"/>
<path d="M360.287 953.287L446.99 942.64L529.384 955.569L625.467 968.245L657.664 1013.37L754.254 1041L862.253 1014.64L910.167 988.273L970.758 948.217L1029.07 924.64L1105.63 880.528L1060.76 812.078L1098.02 744.389L1154.05 667.066L1177.12 610.278L1148.22 510.138L1146.95 450.054L1024.25 436.618" stroke="#FF0000" stroke-width="22"/>
<path d="M1236.68 1973.86L1144.91 1870.62L1103.75 1793.02L1077.43 1714.75L1052.47 1633.1L1022.78 1546.05L904.69 1315.95V1228.23L923.583 1139.16V1044.02L910.088 988.687L868.252 896.243L815.619 773.433L773.108 683.688L712.378 599.341L672.566 548.732L628.706 487.328L521.416 440.768" stroke="#0070C0" stroke-width="22"/>
<path d="M797.695 905.386C796.63 904.321 796.006 903.242 795.821 902.149C795.665 901.056 795.991 900.076 796.843 899.196L798.803 901.155C798.136 901.993 798.277 902.873 799.229 903.824C799.584 904.179 799.953 904.406 800.322 904.52C800.72 904.633 801.046 904.548 801.33 904.264C801.529 904.066 801.6 903.838 801.572 903.554C801.543 903.271 801.487 903.015 801.373 902.802C801.274 902.589 801.046 902.22 800.72 901.666C800.72 901.638 800.691 901.624 800.691 901.61C800.691 901.595 800.691 901.581 800.663 901.567C800.663 901.539 800.649 901.524 800.635 901.51C800.379 901.084 800.166 900.744 800.01 900.46C799.868 900.176 799.712 899.835 799.555 899.438C799.414 899.04 799.342 898.671 799.328 898.359C799.314 898.046 799.385 897.706 799.513 897.337C799.655 896.968 799.896 896.627 800.209 896.314C801.018 895.505 801.913 895.179 802.892 895.349C803.886 895.52 804.838 896.087 805.775 897.01C806.67 897.904 807.195 898.841 807.351 899.821C807.507 900.815 807.209 901.723 806.457 902.547L804.54 900.644C804.809 900.304 804.909 899.949 804.852 899.565C804.795 899.168 804.596 898.799 804.227 898.43C803.886 898.089 803.546 897.89 803.191 897.819C802.85 897.748 802.58 897.819 802.353 898.032C802.097 898.288 802.04 898.586 802.182 898.955C802.324 899.324 802.665 899.92 803.191 900.772C803.517 901.312 803.773 901.766 803.957 902.149C804.142 902.532 804.284 902.944 804.383 903.427C804.497 903.909 804.469 904.364 804.312 904.79C804.17 905.23 803.901 905.641 803.489 906.053C802.679 906.862 801.756 907.174 800.677 907.018C799.612 906.876 798.618 906.323 797.681 905.386H797.695ZM805.292 896.059L807.209 895.094L809.268 897.166L806.655 897.436L805.292 896.073V896.059ZM802.864 910.198L806.783 902.816L808.615 904.648L806.897 907.615L806.059 908.963L806.087 908.992C806.613 908.651 807.067 908.353 807.465 908.126L810.376 906.408L811.895 907.927L810.205 910.851L809.339 912.257L809.368 912.285C809.893 911.944 810.347 911.675 810.731 911.448L813.699 909.73L815.474 911.504L808.09 915.422L806.4 913.733L808.303 910.511L809.069 909.247V909.219C808.572 909.517 808.161 909.772 807.777 909.985L804.54 911.873L802.878 910.212L802.864 910.198ZM810.234 917.552L815.885 911.902L817.689 913.705L812.037 919.355L810.234 917.552ZM816.681 911.121L818.143 909.659L819.946 911.462L818.484 912.924L816.681 911.121ZM814.565 925.8C813.656 924.891 813.5 924.125 814.125 923.5C814.465 923.159 814.92 923.032 815.474 923.117C814.565 922.194 814.125 921.186 814.139 920.079C814.167 918.986 814.607 917.992 815.488 917.126C816.34 916.274 817.32 915.834 818.427 915.806C819.535 915.777 820.529 916.203 821.381 917.055C822.162 917.822 822.559 918.702 822.602 919.696C822.659 920.987 822.076 922.237 820.841 923.443L816.78 919.383C816.453 919.837 816.283 920.277 816.269 920.703C816.269 921.129 816.453 921.527 816.808 921.882C817.277 922.35 817.774 922.464 818.314 922.265L820.074 924.025C819.492 924.394 818.825 924.536 818.072 924.494C817.959 924.494 817.788 924.465 817.561 924.451C817.348 924.423 817.178 924.409 817.05 924.409C816.922 924.409 816.766 924.409 816.595 924.409C816.425 924.409 816.283 924.437 816.169 924.48C816.056 924.522 815.971 924.579 815.9 924.65C815.715 924.834 815.729 925.033 815.928 925.232C816.027 925.331 816.141 925.417 816.269 925.459L815.332 926.41C815.09 926.311 814.835 926.112 814.565 925.842V925.8ZM817.859 918.304L820.088 920.533C820.401 920.164 820.557 919.781 820.557 919.383C820.557 918.986 820.415 918.645 820.131 918.361C819.492 917.722 818.74 917.708 817.873 918.304H817.859ZM821.153 928.596C820.585 928.029 820.245 927.461 820.16 926.921C820.089 926.382 820.33 925.814 820.912 925.246L823.951 922.208L823.198 921.456L824.32 920.334L825.073 921.087L826.862 919.298L828.623 921.058L826.833 922.847L827.856 923.869L826.734 924.991L825.712 923.968L823.056 926.623C822.857 926.822 822.758 927.021 822.786 927.205C822.815 927.404 822.928 927.603 823.141 927.801C823.198 927.858 823.283 927.943 823.369 928.029C823.468 928.114 823.525 928.171 823.539 928.185L822.233 929.505C821.963 929.363 821.608 929.065 821.153 928.611V928.596ZM826.237 930.414C826.138 930.925 826.28 931.379 826.663 931.762C827.046 932.145 827.501 932.287 828.012 932.174C828.537 932.074 829.063 931.776 829.574 931.251C830.099 930.726 830.412 930.201 830.497 929.69C830.611 929.164 830.469 928.71 830.085 928.327C829.702 927.943 829.247 927.801 828.736 927.901C828.225 928 827.7 928.327 827.174 928.852C826.649 929.377 826.336 929.888 826.237 930.414ZM828.41 934.388C827.288 934.403 826.28 933.963 825.385 933.068C824.49 932.174 824.036 931.152 824.05 930.03C824.05 928.909 824.49 927.915 825.357 927.049C826.223 926.183 827.217 925.757 828.339 925.743C829.46 925.743 830.483 926.183 831.377 927.077C832.272 927.972 832.712 928.98 832.698 930.101C832.698 931.223 832.258 932.216 831.392 933.082C830.525 933.948 829.531 934.374 828.41 934.388ZM829.191 936.504L837.086 928.611L838.861 930.385L834.7 934.545L838.293 934.317L840.366 936.39L836.262 936.518L834.942 942.267L832.854 940.18L833.806 936.518L832.698 936.546L830.966 938.278L829.191 936.504ZM835.368 942.679L841.019 937.029L842.737 938.747L841.857 939.627L841.885 939.655C842.922 939.386 843.76 939.584 844.399 940.237C844.569 940.408 844.668 940.535 844.711 940.635L843.163 942.182L843.121 942.14C842.638 941.501 842.098 941.16 841.502 941.117C840.906 941.061 840.309 941.345 839.699 941.941L837.157 944.482L835.353 942.679H835.368ZM839.429 946.739L840.764 945.405L845.421 945.234H846.401L846.429 945.192C846.074 944.851 845.833 944.624 845.719 944.51L843.944 942.75L845.322 941.373L849.965 946.015L848.644 947.335L844.171 947.52H843.007L842.979 947.562C843.376 947.946 843.66 948.23 843.831 948.386L845.875 950.43L844.484 951.821L839.415 946.753L839.429 946.739ZM843.49 954.533L844.896 953.127L845.506 953.752C846.003 954.249 846.443 954.291 846.841 953.894C847.026 953.695 847.31 953.198 847.665 952.375L850.348 946.356L852.251 948.258L850.604 951.424L849.653 953.085L849.681 953.113C850.277 952.716 850.831 952.389 851.314 952.148L854.466 950.487L856.27 952.29L848.588 956.066C847.693 956.506 846.955 956.691 846.372 956.634C845.804 956.591 845.222 956.279 844.668 955.711L843.49 954.533ZM853.188 960.864C852.365 960.041 851.882 959.203 851.74 958.351C851.612 957.5 851.854 956.761 852.45 956.094L854.154 957.798C853.657 958.422 853.728 959.047 854.353 959.672C854.623 959.941 854.892 960.112 855.134 960.169C855.404 960.225 855.617 960.169 855.801 959.998C855.858 959.941 855.901 959.885 855.929 959.828C855.957 959.771 855.972 959.7 855.972 959.629C855.972 959.558 855.972 959.487 855.972 959.416C855.972 959.359 855.943 959.288 855.901 959.189C855.858 959.09 855.83 959.019 855.787 958.948C855.759 958.891 855.702 958.806 855.617 958.692C855.546 958.579 855.489 958.493 855.446 958.437C855.404 958.366 855.347 958.28 855.247 958.153C855.162 958.025 855.091 957.926 855.049 957.869C854.85 957.599 854.694 957.358 854.566 957.159C854.452 956.946 854.339 956.705 854.225 956.421C854.126 956.137 854.069 955.881 854.055 955.64C854.055 955.399 854.111 955.157 854.225 954.873C854.339 954.589 854.523 954.32 854.793 954.064C855.361 953.496 856.043 953.283 856.824 953.425C857.605 953.567 858.343 953.993 859.039 954.689C859.834 955.47 860.274 956.25 860.388 957.003C860.501 957.755 860.303 958.437 859.777 959.047L858.116 957.386C858.499 956.889 858.414 956.364 857.874 955.825C857.633 955.583 857.406 955.441 857.164 955.384C856.937 955.328 856.738 955.384 856.568 955.555C856.525 955.597 856.483 955.64 856.469 955.697C856.44 955.754 856.44 955.81 856.44 955.867C856.44 955.938 856.454 955.995 856.469 956.038C856.469 956.094 856.511 956.165 856.54 956.25C856.568 956.336 856.611 956.407 856.639 956.463C856.682 956.534 856.724 956.605 856.795 956.705C856.866 956.804 856.923 956.889 856.966 956.96C857.022 957.031 857.079 957.116 857.15 957.244C857.235 957.358 857.292 957.443 857.349 957.514C857.562 957.812 857.718 958.053 857.846 958.252C857.974 958.451 858.087 958.706 858.215 959.019C858.343 959.331 858.414 959.615 858.414 959.856C858.414 960.098 858.357 960.367 858.244 960.68C858.13 960.978 857.945 961.276 857.661 961.56C857.051 962.156 856.355 962.383 855.546 962.227C854.75 962.085 853.969 961.617 853.203 960.864H853.188ZM856.525 963.845L864.42 955.952L866.195 957.727L862.049 961.872L865.642 961.645L867.715 963.718L863.611 963.845L862.291 969.595L860.203 967.508L861.155 963.845L860.033 963.874L858.3 965.606L856.525 963.831V963.845ZM864.023 971.611C863.441 971.029 863.128 970.418 863.071 969.751C863.015 969.098 863.27 968.502 863.81 967.948C864.378 967.38 864.989 967.153 865.627 967.281C866.281 967.394 866.976 967.749 867.743 968.346C868.354 968.828 868.808 969.126 869.092 969.254C869.39 969.368 869.632 969.339 869.816 969.155C870.228 968.757 870.171 968.289 869.646 967.778C869.092 967.224 868.538 967.167 867.999 967.593L866.337 965.932C866.92 965.393 867.615 965.166 868.411 965.222C869.22 965.293 870.029 965.733 870.839 966.543C871.648 967.352 872.103 968.118 872.202 968.842C872.33 969.666 872.032 970.447 871.307 971.171L868.453 974.024C867.999 974.478 867.8 974.805 867.843 975.032L867.772 975.103L866.025 973.357C866.053 973.186 866.195 972.902 866.465 972.533L866.437 972.505C865.557 972.661 864.747 972.363 863.98 971.596L864.023 971.611ZM865.741 971.043C866.082 971.384 866.437 971.554 866.834 971.582C867.232 971.611 867.587 971.469 867.899 971.156L868.567 970.489C868.297 970.404 867.899 970.191 867.346 969.865C866.905 969.581 866.55 969.424 866.295 969.396C866.039 969.353 865.798 969.439 865.599 969.652C865.173 970.063 865.23 970.532 865.741 971.057V971.043Z" fill="black"/>
<path d="M648.915 917.471L656.81 909.578L660.587 913.354C661.397 914.163 661.865 915.029 661.979 915.937C662.092 916.86 661.794 917.669 661.084 918.379C660.133 919.33 659.04 919.515 657.804 918.919L657.776 918.947C658.216 919.827 658.117 920.693 657.478 921.545C657.265 921.843 656.981 922.198 656.611 922.595C656.256 922.993 655.987 923.305 655.83 923.518C655.674 923.731 655.617 923.901 655.674 924.015L655.575 924.114L653.672 922.212C653.644 922.113 653.715 921.971 653.857 921.758C653.999 921.545 654.226 921.275 654.524 920.92C654.822 920.58 655.049 920.296 655.206 920.083C655.859 919.231 655.788 918.422 655.021 917.641L653.842 916.463L650.889 919.416L648.929 917.456L648.915 917.471ZM655.277 915.015L656.739 916.477C657.123 916.86 657.492 917.073 657.861 917.102C658.23 917.13 658.571 916.988 658.869 916.69C659.167 916.392 659.309 916.065 659.295 915.696C659.295 915.327 659.096 914.958 658.727 914.589L657.208 913.07L655.262 915.015H655.277Z" fill="white"/>
<path d="M661.794 928.998C660.672 928.998 659.664 928.558 658.77 927.663C657.875 926.769 657.421 925.747 657.435 924.625C657.435 923.504 657.875 922.51 658.741 921.644C659.607 920.778 660.601 920.352 661.723 920.338C662.845 920.324 663.867 920.778 664.762 921.673C665.657 922.567 666.097 923.575 666.097 924.711C666.097 925.846 665.657 926.826 664.79 927.692C663.924 928.558 662.93 928.984 661.808 928.998H661.794ZM659.607 925.023C659.508 925.534 659.65 925.988 660.033 926.372C660.417 926.755 660.871 926.897 661.382 926.797C661.908 926.698 662.419 926.386 662.944 925.861C663.47 925.335 663.782 924.81 663.882 924.299C663.981 923.774 663.839 923.319 663.456 922.936C663.072 922.553 662.618 922.411 662.107 922.51C661.595 922.61 661.07 922.922 660.545 923.461C660.019 923.987 659.707 924.498 659.607 925.023Z" fill="white"/>
<path d="M662.562 931.113L668.213 925.463L669.945 927.195L669.179 927.962L669.207 927.99C670.272 927.805 671.167 928.061 671.891 928.799C672.501 929.41 672.785 930.091 672.743 930.829C672.7 931.567 672.359 932.263 671.72 932.902L668.043 936.579L666.239 934.776L669.548 931.468C669.86 931.156 670.031 930.843 670.059 930.503C670.087 930.176 669.96 929.864 669.676 929.58C669.377 929.282 669.037 929.154 668.625 929.197C668.213 929.239 667.844 929.424 667.489 929.779L664.365 932.902L662.562 931.099V931.113Z" fill="white"/>
<path d="M670.896 939.801C670.158 939.063 669.831 938.197 669.917 937.203C670.002 936.21 670.499 935.244 671.436 934.321C672.373 933.399 673.268 932.944 674.29 932.859C675.313 932.774 676.179 933.086 676.903 933.81C677.584 934.492 677.84 935.287 677.67 936.195L677.698 936.224L680.581 933.342L682.384 935.145L674.489 943.038L672.771 941.32L673.538 940.554L673.509 940.525C672.515 940.781 671.649 940.539 670.896 939.801ZM672.785 938.836C673.154 939.205 673.594 939.347 674.091 939.276C674.588 939.205 675.085 938.921 675.554 938.453C676.051 937.956 676.349 937.459 676.448 936.962C676.548 936.465 676.406 936.025 676.023 935.642C675.668 935.287 675.242 935.159 674.745 935.244C674.248 935.329 673.751 935.627 673.268 936.11C672.785 936.593 672.487 937.09 672.402 937.586C672.316 938.069 672.444 938.481 672.785 938.836Z" fill="white"/>
<path d="M680.978 948.177C679.856 948.177 678.848 947.751 677.953 946.842C677.059 945.948 676.604 944.926 676.618 943.804C676.618 942.683 677.059 941.689 677.925 940.823C678.791 939.957 679.785 939.531 680.907 939.517C682.029 939.517 683.051 939.957 683.946 940.852C684.84 941.746 685.28 942.754 685.28 943.89C685.28 945.025 684.84 946.005 683.974 946.871C683.108 947.737 682.114 948.163 680.992 948.177H680.978ZM678.791 944.202C678.692 944.713 678.834 945.167 679.217 945.551C679.6 945.934 680.055 946.076 680.566 945.976C681.091 945.877 681.603 945.565 682.128 945.039C682.653 944.514 682.966 943.989 683.065 943.478C683.165 942.953 683.023 942.498 682.639 942.115C682.256 941.732 681.801 941.59 681.29 941.689C680.779 941.789 680.254 942.115 679.728 942.64C679.203 943.166 678.89 943.677 678.791 944.202Z" fill="white"/>
<path d="M683.563 952.109L691.458 944.216L694.824 947.581C695.917 948.674 696.442 949.923 696.386 951.328C696.329 952.734 695.69 954.026 694.483 955.232C693.063 956.652 691.543 957.262 689.925 957.049C688.803 956.893 687.766 956.325 686.801 955.36L683.549 952.109H683.563ZM687.17 952.421L688.32 953.571C688.959 954.21 689.626 954.494 690.351 954.437C691.075 954.381 691.799 953.997 692.523 953.259C693.247 952.521 693.659 951.783 693.744 951.016C693.83 950.25 693.574 949.568 692.963 948.972L691.799 947.794L687.184 952.407L687.17 952.421Z" fill="white"/>
<path d="M692.707 961.535C692.125 960.953 691.813 960.343 691.756 959.676C691.699 959.009 691.955 958.426 692.494 957.873C693.062 957.305 693.673 957.078 694.326 957.191C694.965 957.319 695.675 957.674 696.442 958.256C697.067 958.739 697.507 959.037 697.805 959.165C698.089 959.278 698.33 959.25 698.515 959.065C698.913 958.668 698.87 958.199 698.345 957.688C697.791 957.135 697.237 957.078 696.697 957.504L695.036 955.843C695.618 955.303 696.314 955.076 697.123 955.147C697.933 955.218 698.742 955.658 699.552 956.467C700.361 957.277 700.815 958.043 700.915 958.767C701.043 959.591 700.744 960.371 700.02 961.095L697.166 963.949C696.712 964.403 696.513 964.73 696.555 964.957L696.484 965.028L694.738 963.282C694.766 963.111 694.908 962.827 695.178 962.458L695.15 962.43C694.269 962.586 693.46 962.288 692.693 961.521L692.707 961.535ZM694.425 960.968C694.766 961.308 695.135 961.493 695.533 961.507C695.931 961.535 696.286 961.393 696.584 961.081L697.251 960.414C696.981 960.329 696.584 960.116 696.03 959.789C695.59 959.505 695.235 959.349 694.979 959.321C694.724 959.278 694.482 959.378 694.283 959.576C693.857 959.988 693.914 960.456 694.425 960.982V960.968Z" fill="white"/>
<path d="M699.395 968.293C698.572 967.469 698.089 966.632 697.961 965.78C697.833 964.928 698.061 964.19 698.657 963.523L700.361 965.226C699.864 965.851 699.935 966.476 700.56 967.1C700.83 967.37 701.099 967.54 701.355 967.597C701.611 967.654 701.824 967.597 702.008 967.427C702.065 967.37 702.108 967.313 702.136 967.256C702.164 967.2 702.179 967.129 702.179 967.058C702.179 966.987 702.179 966.916 702.179 966.859C702.179 966.802 702.15 966.717 702.108 966.632C702.065 966.532 702.037 966.461 701.994 966.405C701.966 966.348 701.909 966.248 701.838 966.149C701.767 966.036 701.71 965.95 701.667 965.894C701.625 965.837 701.554 965.737 701.469 965.61C701.383 965.482 701.312 965.383 701.27 965.326C701.071 965.056 700.915 964.815 700.787 964.616C700.659 964.417 700.546 964.176 700.446 963.892C700.347 963.608 700.276 963.352 700.276 963.111C700.276 962.87 700.318 962.614 700.432 962.344C700.546 962.075 700.73 961.805 700.986 961.55C701.554 960.982 702.235 960.769 703.016 960.911C703.797 961.053 704.536 961.479 705.232 962.174C706.012 962.955 706.467 963.736 706.581 964.488C706.694 965.241 706.495 965.922 705.97 966.532L704.309 964.871C704.692 964.375 704.607 963.849 704.067 963.31C703.826 963.069 703.599 962.927 703.371 962.87C703.144 962.813 702.945 962.87 702.775 963.04C702.732 963.083 702.704 963.14 702.676 963.182C702.647 963.239 702.647 963.296 702.647 963.352C702.647 963.409 702.647 963.48 702.676 963.523C702.704 963.565 702.704 963.651 702.747 963.722C702.789 963.807 702.818 963.878 702.846 963.935C702.874 963.991 702.931 964.076 703.002 964.176C703.073 964.275 703.13 964.36 703.173 964.417C703.215 964.488 703.272 964.573 703.357 964.687C703.428 964.8 703.499 964.886 703.556 964.957C703.769 965.255 703.925 965.496 704.053 965.695C704.181 965.894 704.309 966.149 704.422 966.461C704.55 966.774 704.607 967.043 704.621 967.299C704.621 967.54 704.564 967.824 704.451 968.122C704.337 968.42 704.138 968.719 703.854 968.988C703.244 969.599 702.548 969.812 701.753 969.67C700.957 969.514 700.176 969.059 699.41 968.293H699.395Z" fill="white"/>
<path d="M702.505 971.047L703.84 969.712L708.497 969.542H709.477L709.505 969.499C709.15 969.159 708.909 968.932 708.795 968.818L707.035 967.058L708.412 965.681L713.055 970.323L711.735 971.643L707.262 971.828H706.097L706.069 971.87C706.467 972.253 706.751 972.523 706.921 972.694L708.966 974.738L707.574 976.129L702.505 971.061V971.047Z" fill="white"/>
<path d="M706.566 978.84L707.972 977.435L708.597 978.06C709.094 978.557 709.534 978.599 709.932 978.202C710.116 978.017 710.4 977.506 710.755 976.697L713.439 970.678L715.342 972.58L713.695 975.746L712.743 977.407L712.772 977.435C713.368 977.038 713.922 976.711 714.405 976.47L717.557 974.809L719.361 976.612L711.678 980.388C710.784 980.828 710.06 981.012 709.477 980.97C708.895 980.927 708.327 980.615 707.759 980.047L706.595 978.869L706.566 978.84Z" fill="white"/>
<path d="M714.093 982.631L719.744 976.981L721.477 978.713L720.71 979.479L720.738 979.508C721.803 979.323 722.698 979.579 723.422 980.317C724.033 980.927 724.317 981.609 724.274 982.347C724.231 983.085 723.891 983.781 723.252 984.42L719.574 988.096L717.771 986.293L721.079 982.986C721.391 982.673 721.562 982.361 721.59 982.02C721.619 981.694 721.491 981.382 721.207 981.098C720.909 980.8 720.568 980.672 720.156 980.714C719.744 980.757 719.375 980.941 719.02 981.296L715.896 984.42L714.093 982.617V982.631ZM722.456 978.358L724.714 977.35L726.787 979.422L723.82 979.721L722.456 978.358Z" fill="white"/>
<path d="M722.612 991.503C721.789 990.68 721.306 989.842 721.178 988.991C721.05 988.139 721.277 987.401 721.874 986.734L723.578 988.437C723.081 989.062 723.152 989.686 723.777 990.311C724.046 990.581 724.316 990.751 724.572 990.808C724.827 990.865 725.04 990.808 725.225 990.637C725.282 990.581 725.324 990.524 725.353 990.467C725.381 990.41 725.395 990.339 725.395 990.268C725.395 990.197 725.395 990.126 725.395 990.07C725.395 990.013 725.367 989.928 725.324 989.843C725.282 989.743 725.253 989.672 725.211 989.615C725.182 989.559 725.126 989.459 725.055 989.36C724.984 989.246 724.927 989.161 724.884 989.104C724.842 989.048 724.771 988.948 724.685 988.82C724.6 988.693 724.529 988.593 724.487 988.536C724.288 988.267 724.132 988.025 724.004 987.827C723.876 987.628 723.762 987.387 723.663 987.103C723.564 986.819 723.493 986.563 723.493 986.322C723.493 986.08 723.535 985.825 723.649 985.555C723.762 985.286 723.947 985.016 724.203 984.76C724.771 984.192 725.452 983.979 726.233 984.121C727.014 984.263 727.753 984.689 728.448 985.385C729.229 986.166 729.684 986.946 729.797 987.699C729.911 988.451 729.712 989.133 729.187 989.743L727.525 988.082C727.909 987.585 727.824 987.06 727.284 986.521C727.043 986.279 726.815 986.137 726.588 986.081C726.361 986.024 726.162 986.081 725.992 986.251C725.949 986.293 725.921 986.35 725.892 986.393C725.864 986.45 725.864 986.506 725.864 986.563C725.864 986.62 725.864 986.691 725.892 986.734C725.921 986.776 725.921 986.861 725.963 986.932C726.006 987.017 726.034 987.088 726.063 987.145C726.091 987.202 726.148 987.287 726.219 987.387C726.29 987.486 726.347 987.571 726.389 987.628C726.432 987.699 726.489 987.784 726.574 987.898C726.645 988.011 726.716 988.096 726.773 988.167C726.986 988.465 727.142 988.707 727.27 988.906C727.398 989.104 727.525 989.36 727.639 989.672C727.767 989.984 727.824 990.254 727.838 990.51C727.838 990.751 727.781 991.035 727.667 991.333C727.554 991.631 727.355 991.929 727.071 992.199C726.46 992.809 725.765 993.022 724.969 992.88C724.174 992.724 723.393 992.27 722.626 991.503H722.612Z" fill="white"/>
<path d="M725.949 994.485L733.844 986.592L735.619 988.366L731.473 992.511L735.066 992.284L737.139 994.357L733.035 994.485L731.714 1000.23L729.627 998.147L730.578 994.485L729.457 994.513L727.724 996.245L725.949 994.47V994.485Z" fill="white"/>
<path d="M732.141 1000.67L737.792 995.024L739.596 996.827L733.944 1002.48L732.141 1000.67ZM738.573 994.229L740.036 992.767L741.839 994.57L740.377 996.032L738.573 994.229Z" fill="white"/>
<path d="M737.394 1006.27C736.485 1005.36 736.031 1004.34 736.045 1003.23C736.059 1002.12 736.5 1001.13 737.38 1000.25C738.26 999.368 739.212 998.956 740.319 998.928C741.427 998.899 742.407 999.311 743.259 1000.18C744.026 1000.94 744.437 1001.82 744.48 1002.82C744.537 1004.11 743.955 1005.36 742.719 1006.57L738.658 1002.51C738.331 1002.96 738.161 1003.4 738.161 1003.83C738.161 1004.25 738.331 1004.65 738.701 1005.02C739.169 1005.49 739.666 1005.61 740.206 1005.39L741.967 1007.15C741.285 1007.56 740.532 1007.69 739.68 1007.53C738.843 1007.39 738.076 1006.96 737.394 1006.28V1006.27ZM739.766 1001.43L741.995 1003.66C742.307 1003.29 742.464 1002.9 742.464 1002.51C742.464 1002.11 742.322 1001.77 742.023 1001.47C741.384 1000.83 740.632 1000.82 739.766 1001.41V1001.43Z" fill="white"/>
<path d="M741.655 1014.1C740.874 1013.32 740.391 1012.53 740.22 1011.73C740.05 1010.94 740.22 1010.2 740.717 1009.52L742.464 1011.26C742.223 1011.76 742.365 1012.27 742.904 1012.81C743.628 1013.54 744.353 1013.54 745.063 1012.81L745.631 1012.24L745.588 1012.2C744.764 1012.26 744.069 1011.99 743.486 1011.41C742.805 1010.72 742.464 1009.92 742.464 1008.95C742.464 1008 742.876 1007.1 743.714 1006.27C744.551 1005.43 745.446 1004.98 746.411 1004.89C747.377 1004.81 748.215 1005.12 748.911 1005.81C749.606 1006.51 749.876 1007.3 749.734 1008.17L749.763 1008.2L750.373 1007.59L752.091 1009.31L746.994 1014.4C746.199 1015.21 745.318 1015.58 744.367 1015.52C743.472 1015.47 742.578 1014.98 741.655 1014.08V1014.1ZM745.247 1010.48C745.616 1010.85 746.042 1011.01 746.497 1010.95C746.951 1010.9 747.391 1010.64 747.817 1010.23C748.215 1009.83 748.442 1009.39 748.513 1008.92C748.584 1008.45 748.428 1008.04 748.073 1007.67C747.732 1007.33 747.335 1007.19 746.88 1007.25C746.426 1007.3 745.971 1007.54 745.545 1007.97C745.119 1008.4 744.878 1008.84 744.821 1009.29C744.764 1009.75 744.906 1010.14 745.247 1010.48Z" fill="white"/>
<path d="M752.929 1020.11C751.807 1020.11 750.799 1019.68 749.904 1018.77C749.01 1017.88 748.555 1016.86 748.57 1015.74C748.57 1014.61 749.01 1013.62 749.876 1012.75C750.742 1011.89 751.736 1011.46 752.858 1011.45C753.98 1011.45 755.002 1011.89 755.897 1012.78C756.791 1013.68 757.232 1014.69 757.232 1015.81C757.232 1016.93 756.791 1017.92 755.925 1018.79C755.059 1019.65 754.065 1020.08 752.943 1020.09L752.929 1020.11ZM750.756 1016.15C750.657 1016.66 750.799 1017.11 751.182 1017.5C751.566 1017.88 752.02 1018.02 752.531 1017.92C753.057 1017.82 753.568 1017.51 754.093 1016.99C754.619 1016.46 754.931 1015.93 755.031 1015.42C755.13 1014.9 754.988 1014.44 754.605 1014.06C754.221 1013.68 753.767 1013.54 753.256 1013.65C752.744 1013.75 752.219 1014.06 751.694 1014.6C751.168 1015.13 750.856 1015.64 750.756 1016.16V1016.15Z" fill="white"/>
<path d="M646.465 959.693L654.361 951.8L657.91 955.349C658.833 956.272 659.316 957.237 659.33 958.231C659.373 959.253 658.99 960.176 658.18 960.971C657.413 961.737 656.547 962.106 655.582 962.106C654.616 962.106 653.722 961.695 652.926 960.885L651.08 959.04L648.439 961.68L646.451 959.693H646.465ZM652.642 957.507L654.091 958.955C654.432 959.295 654.801 959.48 655.184 959.48C655.567 959.48 655.923 959.324 656.235 959.012C656.547 958.699 656.703 958.344 656.689 957.975C656.675 957.606 656.491 957.237 656.15 956.896L654.701 955.448L652.642 957.521V957.507Z" fill="white"/>
<path d="M653.735 966.961L656.277 964.42L655.269 964.264L656.561 962.972L657.569 963.128L661.63 959.068L663.448 960.885L660.736 963.597L661.886 963.767L660.594 965.059L659.444 964.889L655.553 968.778L653.735 966.961Z" fill="white"/>
<path d="M662.241 974.116C661.12 974.116 660.112 973.69 659.217 972.782C658.322 971.887 657.868 970.865 657.882 969.744C657.882 968.622 658.322 967.629 659.189 966.763C660.055 965.897 661.049 965.471 662.171 965.457C663.292 965.442 664.315 965.897 665.209 966.791C666.104 967.685 666.544 968.693 666.544 969.815C666.544 970.936 666.104 971.93 665.238 972.796C664.371 973.662 663.392 974.088 662.256 974.102L662.241 974.116ZM660.055 970.141C659.955 970.652 660.097 971.107 660.481 971.49C660.864 971.873 661.319 972.015 661.83 971.916C662.355 971.816 662.866 971.504 663.392 970.979C663.917 970.454 664.229 969.928 664.329 969.417C664.428 968.892 664.286 968.438 663.903 968.055C663.519 967.671 663.065 967.529 662.554 967.629C662.043 967.728 661.517 968.055 660.992 968.58C660.467 969.105 660.154 969.616 660.055 970.141Z" fill="white"/>
<path d="M665.579 979.156C664.684 978.261 664.244 977.254 664.258 976.132C664.272 975.011 664.713 974.017 665.579 973.165C666.445 972.313 667.425 971.859 668.532 971.845C669.64 971.816 670.648 972.256 671.528 973.137C672.281 973.889 672.693 974.698 672.778 975.578C672.863 976.459 672.622 977.254 672.054 977.992L670.321 976.26C670.762 975.578 670.719 974.982 670.236 974.499C669.853 974.116 669.413 973.974 668.93 974.074C668.433 974.173 667.936 974.485 667.411 975.011C666.899 975.522 666.587 976.033 666.502 976.515C666.417 977.012 666.544 977.438 666.928 977.821C667.496 978.389 668.149 978.403 668.887 977.821L670.605 979.539C669.91 980.192 669.1 980.49 668.177 980.433C667.254 980.377 666.388 979.965 665.607 979.17L665.579 979.156Z" fill="white"/>
<path d="M669.015 982.236L676.91 974.343L678.685 976.118L674.538 980.263L678.131 980.036L680.204 982.109L676.1 982.236L674.78 987.986L672.692 985.899L673.644 982.236L672.522 982.265L670.79 983.997L669.015 982.222V982.236Z" fill="white"/>
<path d="M676.498 990.016C675.916 989.434 675.604 988.809 675.547 988.156C675.49 987.503 675.746 986.907 676.285 986.353C676.853 985.785 677.464 985.558 678.117 985.672C678.756 985.8 679.466 986.155 680.233 986.737C680.858 987.219 681.298 987.517 681.596 987.645C681.88 987.759 682.121 987.73 682.306 987.546C682.704 987.148 682.661 986.68 682.136 986.169C681.582 985.615 681.028 985.558 680.488 985.984L678.827 984.323C679.409 983.784 680.105 983.557 680.914 983.628C681.724 983.699 682.533 984.139 683.343 984.948C684.152 985.757 684.606 986.524 684.706 987.248C684.834 988.071 684.535 988.852 683.811 989.576L680.957 992.429C680.503 992.884 680.304 993.21 680.346 993.437L680.275 993.508L678.529 991.762C678.557 991.592 678.699 991.308 678.969 990.939H678.941C678.06 991.066 677.251 990.768 676.484 990.016H676.498ZM678.231 989.434C678.571 989.775 678.941 989.959 679.338 989.973C679.736 990.002 680.091 989.86 680.389 989.547L681.056 988.88C680.787 988.795 680.389 988.582 679.835 988.256C679.395 987.972 679.04 987.815 678.784 987.787C678.529 987.745 678.287 987.844 678.089 988.043C677.663 988.454 677.719 988.923 678.231 989.448V989.434Z" fill="white"/>
<path d="M585.513 914.876L593.408 906.983L596.035 909.609L593.536 914.024L592.187 916.281L592.215 916.31C593.294 915.642 594.033 915.188 594.459 914.947L598.889 912.462L601.544 915.117L593.649 923.01L591.86 921.221L595.836 917.247L597.455 915.699L597.426 915.671C596.447 916.281 595.836 916.65 595.595 916.778L590.369 919.731L588.75 918.112L591.704 912.917L592.826 911.071L592.797 911.043C591.974 911.909 591.448 912.448 591.235 912.661L587.273 916.622L585.513 914.862V914.876Z" fill="white"/>
<path d="M594.785 924.146L597.327 921.605L596.319 921.449L597.611 920.157L598.619 920.313L602.68 916.253L604.498 918.07L601.786 920.781L602.936 920.952L601.644 922.244L600.493 922.073L596.603 925.963L594.785 924.146Z" fill="white"/>
<path d="M595.978 929.072L597.383 927.666L598.008 928.291C598.505 928.788 598.945 928.831 599.343 928.433C599.527 928.248 599.812 927.737 600.167 926.914L602.85 920.895L604.753 922.797L603.106 925.963L602.154 927.624L602.183 927.652C602.779 927.255 603.333 926.928 603.816 926.687L606.968 925.026L608.772 926.829L601.09 930.605C600.195 931.045 599.471 931.23 598.888 931.187C598.306 931.13 597.738 930.832 597.17 930.264L596.006 929.1L595.978 929.072Z" fill="white"/>
<path d="M603.504 932.862L609.155 927.212L610.888 928.944L610.121 929.711L610.149 929.739C611.214 929.555 612.109 929.81 612.833 930.548C613.444 931.159 613.728 931.84 613.685 932.578C613.643 933.331 613.302 934.012 612.663 934.651L608.985 938.328L607.182 936.525L610.49 933.217C610.803 932.905 610.973 932.593 611.001 932.252C611.03 931.925 610.902 931.613 610.618 931.329C610.32 931.031 609.979 930.903 609.567 930.946C609.155 930.988 608.786 931.173 608.431 931.528L605.307 934.651L603.504 932.848V932.862Z" fill="white"/>
<path d="M615.417 943.424C614.296 943.424 613.287 942.998 612.393 942.09C611.498 941.195 611.044 940.173 611.058 939.052C611.058 937.93 611.498 936.937 612.364 936.071C613.231 935.205 614.225 934.779 615.346 934.765C616.468 934.75 617.49 935.205 618.385 936.099C619.28 936.993 619.72 938.001 619.72 939.123C619.72 940.244 619.28 941.238 618.413 942.104C617.547 942.97 616.553 943.396 615.432 943.41L615.417 943.424ZM613.245 939.464C613.145 939.975 613.287 940.429 613.671 940.812C614.054 941.195 614.509 941.337 615.02 941.238C615.545 941.139 616.056 940.826 616.582 940.301C617.107 939.776 617.42 939.251 617.519 938.739C617.618 938.214 617.476 937.76 617.093 937.377C616.709 936.993 616.255 936.851 615.744 936.951C615.233 937.05 614.707 937.377 614.182 937.902C613.657 938.427 613.344 938.938 613.245 939.464ZM618.158 934.878L620.416 933.87L622.489 935.943L619.521 936.241L618.158 934.878Z" fill="white"/>
<path d="M617.249 946.604L621.168 939.222L623 941.053L621.282 944.006L620.444 945.355L620.472 945.383C620.998 945.042 621.452 944.744 621.85 944.503L624.761 942.785L626.28 944.304L624.59 947.229L623.724 948.634L623.753 948.662C624.278 948.322 624.732 948.038 625.116 947.825L628.084 946.107L629.859 947.882L622.475 951.8L620.785 950.111L622.688 946.888L623.454 945.625H623.426C622.957 945.894 622.531 946.15 622.148 946.363L618.91 948.251L617.249 946.59V946.604Z" fill="white"/>
<path d="M451.029 863.872L458.924 855.979L460.884 857.938L458.03 860.791L463.61 860.649L465.925 862.963L459.734 863.105L458.214 871.041L455.942 868.769L457.078 863.077L455.715 863.105L453.003 865.817L451.043 863.857L451.029 863.872Z" fill="white"/>
<path d="M460.629 873.823C459.805 873 459.322 872.162 459.195 871.31C459.067 870.459 459.294 869.72 459.89 869.053L461.594 870.757C461.097 871.381 461.168 872.006 461.793 872.631C462.063 872.9 462.333 873.071 462.588 873.128C462.844 873.184 463.057 873.128 463.242 872.957C463.298 872.9 463.341 872.844 463.369 872.787C463.398 872.73 463.412 872.659 463.412 872.588C463.412 872.517 463.412 872.446 463.412 872.389C463.412 872.333 463.384 872.247 463.341 872.162C463.298 872.077 463.27 871.992 463.227 871.935C463.199 871.878 463.142 871.793 463.071 871.68C463 871.566 462.943 871.481 462.901 871.424C462.858 871.367 462.787 871.268 462.702 871.14C462.617 871.012 462.546 870.913 462.503 870.856C462.304 870.586 462.148 870.345 462.02 870.146C461.893 869.948 461.779 869.706 461.68 869.422C461.58 869.138 461.523 868.883 461.509 868.642C461.509 868.4 461.552 868.145 461.665 867.875C461.779 867.591 461.964 867.336 462.219 867.08C462.787 866.512 463.469 866.299 464.25 866.441C465.031 866.583 465.769 867.009 466.465 867.705C467.246 868.485 467.7 869.266 467.814 870.019C467.927 870.771 467.729 871.452 467.203 872.063L465.542 870.402C465.925 869.905 465.84 869.38 465.301 868.84C465.059 868.599 464.832 868.457 464.605 868.4C464.378 868.343 464.179 868.4 464.008 868.571C463.966 868.613 463.937 868.67 463.909 868.713C463.881 868.769 463.881 868.826 463.881 868.883C463.881 868.94 463.881 869.011 463.909 869.053C463.909 869.11 463.937 869.181 463.98 869.252C464.023 869.323 464.051 869.408 464.079 869.465C464.108 869.522 464.165 869.607 464.236 869.706C464.307 869.806 464.363 869.891 464.406 869.948C464.449 870.019 464.505 870.104 464.591 870.217C464.662 870.331 464.733 870.416 464.789 870.487C464.988 870.785 465.159 871.026 465.286 871.225C465.414 871.424 465.542 871.68 465.656 871.992C465.783 872.304 465.84 872.574 465.854 872.829C465.854 873.071 465.798 873.355 465.684 873.653C465.57 873.951 465.372 874.249 465.088 874.519C464.477 875.129 463.781 875.342 462.986 875.2C462.191 875.044 461.41 874.59 460.643 873.823H460.629Z" fill="white"/>
<path d="M463.966 876.804L469.617 871.154L471.421 872.957L465.769 878.607L463.966 876.804ZM470.398 870.359L471.861 868.897L473.664 870.7L472.202 872.162L470.398 870.359Z" fill="white"/>
<path d="M468.296 885.038C467.388 884.13 467.231 883.363 467.856 882.738C468.197 882.398 468.651 882.27 469.205 882.369C468.296 881.446 467.856 880.439 467.87 879.331C467.885 878.224 468.339 877.244 469.205 876.364C470.071 875.484 471.037 875.072 472.145 875.044C473.252 875.016 474.232 875.427 475.084 876.293C475.851 877.06 476.263 877.94 476.305 878.934C476.362 880.226 475.78 881.475 474.544 882.681L470.483 878.621C470.157 879.076 469.986 879.516 469.986 879.942C469.986 880.368 470.157 880.765 470.526 881.134C470.994 881.603 471.491 881.716 472.031 881.503L473.792 883.264C473.21 883.618 472.542 883.775 471.775 883.732C471.662 883.732 471.506 883.704 471.278 883.689C471.051 883.661 470.881 883.647 470.753 883.647C470.625 883.647 470.469 883.647 470.313 883.647C470.157 883.647 470 883.661 469.887 883.704C469.773 883.746 469.688 883.789 469.617 883.874C469.432 884.059 469.447 884.257 469.645 884.456C469.745 884.555 469.858 884.641 469.986 884.683L469.049 885.634C468.808 885.535 468.552 885.336 468.282 885.052L468.296 885.038ZM471.577 877.557L473.806 879.786C474.118 879.416 474.275 879.033 474.275 878.65C474.275 878.252 474.133 877.912 473.834 877.613C473.195 876.975 472.443 876.96 471.577 877.557Z" fill="white"/>
<path d="M475.382 888.573C474.488 887.679 474.048 886.671 474.062 885.549C474.076 884.428 474.516 883.434 475.382 882.582C476.249 881.716 477.228 881.276 478.336 881.262C479.444 881.234 480.452 881.674 481.332 882.554C482.085 883.306 482.497 884.115 482.582 884.995C482.667 885.876 482.426 886.671 481.858 887.409L480.125 885.677C480.565 884.995 480.523 884.399 480.04 883.917C479.657 883.533 479.216 883.391 478.734 883.491C478.237 883.59 477.74 883.902 477.214 884.428C476.689 884.953 476.391 885.45 476.305 885.932C476.22 886.429 476.348 886.855 476.731 887.224C477.299 887.792 477.953 887.806 478.691 887.224L480.409 888.942C479.713 889.595 478.904 889.893 477.981 889.836C477.058 889.78 476.192 889.368 475.411 888.573H475.382Z" fill="white"/>
<path d="M478.818 891.653L484.47 886.003L486.273 887.806L480.622 893.456L478.818 891.653ZM485.251 885.208L486.714 883.746L488.517 885.549L487.054 887.011L485.251 885.208Z" fill="white"/>
<path d="M483.007 896.125C482.425 895.543 482.112 894.919 482.056 894.266C481.999 893.613 482.254 893.016 482.794 892.463C483.362 891.895 483.973 891.668 484.626 891.781C485.265 891.909 485.975 892.264 486.742 892.846C487.366 893.329 487.807 893.627 488.105 893.754C488.389 893.868 488.63 893.84 488.815 893.655C489.212 893.243 489.17 892.789 488.644 892.278C488.091 891.724 487.537 891.668 486.997 892.094L485.336 890.433C485.918 889.893 486.614 889.666 487.423 889.737C488.233 889.808 489.042 890.248 489.851 891.057C490.661 891.866 491.115 892.633 491.215 893.357C491.342 894.18 491.044 894.961 490.32 895.685L487.466 898.539C487.011 898.993 486.813 899.319 486.855 899.546L486.784 899.617L485.038 897.871C485.066 897.701 485.208 897.417 485.478 897.048L485.449 897.02C484.569 897.176 483.76 896.878 482.993 896.111L483.007 896.125ZM484.725 895.543C485.066 895.884 485.435 896.068 485.833 896.083C486.23 896.111 486.585 895.969 486.884 895.671L487.551 895.004C487.281 894.919 486.884 894.706 486.33 894.379C485.89 894.095 485.535 893.939 485.279 893.896C485.023 893.854 484.782 893.953 484.583 894.152C484.157 894.578 484.214 895.032 484.725 895.557V895.543Z" fill="white"/>
<path d="M491.499 904.615C490.59 903.706 490.136 902.797 490.121 901.875C490.107 900.952 490.491 900.114 491.257 899.334L491.953 898.638L493.728 900.412L493.075 901.065C492.436 901.704 492.408 902.3 492.99 902.883C493.529 903.422 494.112 903.394 494.736 902.769L500.232 897.275L502.191 899.234L496.653 904.771C495.929 905.495 495.177 905.878 494.381 905.921C493.373 905.963 492.422 905.537 491.513 904.615H491.499Z" fill="white"/>
<path d="M496.654 909.768C496.071 909.186 495.759 908.561 495.702 907.908C495.645 907.255 495.901 906.659 496.441 906.105C497.008 905.537 497.619 905.31 498.272 905.424C498.911 905.551 499.621 905.906 500.388 906.488C501.013 906.971 501.453 907.269 501.751 907.397C502.035 907.511 502.277 907.482 502.461 907.298C502.859 906.886 502.816 906.432 502.291 905.921C501.737 905.367 501.183 905.31 500.644 905.736L498.982 904.075C499.564 903.536 500.26 903.308 501.07 903.379C501.879 903.45 502.688 903.891 503.498 904.7C504.307 905.509 504.762 906.275 504.861 906.999C504.989 907.823 504.691 908.604 503.966 909.328L501.112 912.181C500.658 912.635 500.459 912.962 500.502 913.189L500.431 913.26L498.684 911.514C498.713 911.343 498.855 911.06 499.124 910.69L499.096 910.662C498.215 910.818 497.406 910.52 496.639 909.754L496.654 909.768ZM498.372 909.2C498.712 909.541 499.082 909.725 499.479 909.739C499.877 909.753 500.232 909.626 500.53 909.328L501.197 908.66C500.928 908.575 500.53 908.362 499.976 908.036C499.536 907.752 499.181 907.596 498.925 907.567C498.67 907.525 498.428 907.61 498.23 907.823C497.804 908.249 497.86 908.703 498.372 909.228V909.2Z" fill="white"/>
<path d="M501.112 913.927L506.764 908.277L508.496 910.009L507.729 910.776L507.758 910.804C508.823 910.619 509.717 910.875 510.442 911.613C511.052 912.224 511.336 912.905 511.294 913.643C511.251 914.381 510.91 915.077 510.271 915.716L506.593 919.393L504.79 917.59L508.099 914.282C508.411 913.97 508.581 913.657 508.61 913.317C508.638 912.99 508.51 912.678 508.226 912.394C507.928 912.096 507.587 911.968 507.176 912.011C506.764 912.053 506.395 912.238 506.04 912.593L502.916 915.716L501.112 913.913V913.927Z" fill="white"/>
<path d="M509.178 922.331C508.539 921.692 508.241 921.011 508.269 920.287C508.312 919.563 508.653 918.881 509.292 918.228L512.998 914.523L514.787 916.312L511.45 919.648C510.811 920.287 510.769 920.897 511.337 921.465C511.649 921.778 511.99 921.919 512.387 921.877C512.785 921.834 513.14 921.664 513.481 921.323L516.633 918.172L518.436 919.975L512.785 925.625L511.067 923.907L511.763 923.211L511.734 923.183C510.726 923.325 509.888 923.055 509.178 922.36V922.331Z" fill="white"/>
<path d="M515.88 929.06C515.056 928.237 514.573 927.399 514.446 926.547C514.318 925.696 514.545 924.957 515.141 924.29L516.845 925.994C516.348 926.618 516.419 927.243 517.044 927.868C517.314 928.137 517.584 928.308 517.839 928.365C518.095 928.421 518.308 928.365 518.493 928.194C518.549 928.137 518.592 928.081 518.62 928.024C518.649 927.967 518.663 927.896 518.663 927.825C518.663 927.754 518.663 927.683 518.663 927.626C518.663 927.57 518.635 927.484 518.592 927.399C518.549 927.314 518.507 927.229 518.478 927.172C518.45 927.115 518.393 927.03 518.322 926.917C518.251 926.803 518.194 926.718 518.152 926.661C518.109 926.604 518.038 926.505 517.953 926.377C517.868 926.249 517.797 926.15 517.754 926.093C517.555 925.823 517.399 925.582 517.271 925.383C517.144 925.185 517.03 924.943 516.931 924.659C516.817 924.375 516.76 924.12 516.76 923.879C516.76 923.637 516.803 923.382 516.916 923.112C517.03 922.828 517.215 922.573 517.47 922.317C518.038 921.749 518.72 921.536 519.501 921.678C520.282 921.82 521.02 922.246 521.716 922.942C522.511 923.722 522.951 924.503 523.065 925.256C523.178 926.008 522.98 926.689 522.454 927.3L520.793 925.639C521.176 925.142 521.091 924.617 520.552 924.077C520.31 923.836 520.083 923.694 519.856 923.637C519.629 923.581 519.416 923.637 519.259 923.808C519.217 923.85 519.188 923.907 519.16 923.95C519.132 924.006 519.132 924.063 519.132 924.12C519.132 924.177 519.132 924.248 519.16 924.29C519.16 924.347 519.188 924.418 519.231 924.489C519.274 924.574 519.302 924.645 519.33 924.702C519.359 924.759 519.416 924.844 519.487 924.943C519.558 925.043 519.614 925.128 519.657 925.185C519.7 925.256 519.756 925.341 519.842 925.454C519.913 925.568 519.984 925.653 520.04 925.724C520.239 926.022 520.41 926.264 520.537 926.462C520.665 926.661 520.793 926.917 520.907 927.229C521.034 927.541 521.091 927.811 521.105 928.066C521.119 928.322 521.049 928.592 520.935 928.89C520.821 929.188 520.623 929.486 520.339 929.756C519.728 930.366 519.032 930.593 518.237 930.437C517.442 930.281 516.661 929.827 515.894 929.06H515.88Z" fill="white"/>
<path d="M519.004 931.828L520.339 930.494L524.996 930.324H525.976L526.004 930.281C525.649 929.94 525.422 929.713 525.294 929.6L523.534 927.825L524.911 926.448L529.554 931.09L528.234 932.411L523.761 932.595H522.596L522.568 932.638C522.966 933.021 523.25 933.291 523.42 933.461L525.465 935.505L524.073 936.896L519.004 931.828Z" fill="white"/>
<path d="M526.26 939.381C525.678 938.799 525.365 938.174 525.309 937.521C525.252 936.868 525.507 936.272 526.047 935.718C526.615 935.15 527.226 934.923 527.879 935.037C528.518 935.165 529.228 935.519 529.994 936.101C530.619 936.584 531.059 936.882 531.358 937.01C531.642 937.124 531.883 937.095 532.068 936.911C532.465 936.499 532.423 936.045 531.897 935.534C531.343 934.98 530.79 934.923 530.25 935.349L528.589 933.688C529.171 933.149 529.867 932.922 530.676 932.993C531.485 933.063 532.295 933.504 533.104 934.313C533.914 935.122 534.368 935.888 534.467 936.613C534.595 937.436 534.297 938.217 533.573 938.941L530.719 941.794C530.264 942.248 530.065 942.575 530.108 942.802L530.037 942.873L528.29 941.127C528.319 940.956 528.461 940.673 528.731 940.304L528.702 940.275C527.822 940.431 527.012 940.133 526.246 939.367L526.26 939.381ZM527.992 938.799C528.333 939.139 528.702 939.324 529.1 939.338C529.497 939.367 529.852 939.225 530.151 938.926L530.818 938.259C530.548 938.174 530.151 937.961 529.597 937.635C529.157 937.351 528.802 937.195 528.546 937.152C528.291 937.109 528.049 937.209 527.85 937.407C527.424 937.833 527.481 938.288 527.992 938.813V938.799Z" fill="white"/>
<path d="M401.643 885.827C400.55 884.734 399.982 883.656 399.925 882.591C399.868 881.526 400.308 880.518 401.245 879.581L406.357 874.471L408.317 876.43L403.134 881.611C402.268 882.477 402.296 883.357 403.205 884.266C403.645 884.706 404.085 884.919 404.554 884.905C405.023 884.905 405.463 884.692 405.86 884.28L411.001 879.141L412.96 881.1L407.848 886.211C406.925 887.134 405.917 887.574 404.852 887.531C403.787 887.488 402.708 886.921 401.629 885.842L401.643 885.827Z" fill="white"/>
<path d="M406.002 889.902L413.897 882.009L415.715 883.826L407.82 891.719L406.002 889.902Z" fill="white"/>
<path d="M408.701 892.599L414.352 886.949L416.07 888.667L415.19 889.547L415.218 889.575C416.255 889.305 417.093 889.504 417.732 890.143C417.902 890.313 418.002 890.441 418.044 890.541L416.496 892.088L416.454 892.045C415.971 891.407 415.431 891.066 414.835 891.009C414.239 890.966 413.628 891.236 413.032 891.847L410.49 894.388L408.687 892.585L408.701 892.599Z" fill="white"/>
<path d="M411.355 898.987L412.761 897.582L413.386 898.207C413.883 898.703 414.323 898.746 414.721 898.348C414.905 898.164 415.189 897.653 415.544 896.829L418.228 890.81L420.131 892.713L418.484 895.878L417.532 897.539L417.561 897.568C418.157 897.17 418.711 896.844 419.194 896.602L422.346 894.941L424.15 896.744L416.467 900.52C415.573 900.961 414.849 901.145 414.266 901.102C413.684 901.046 413.116 900.748 412.548 900.18L411.384 899.016L411.355 898.987Z" fill="white"/>
<path d="M421.239 905.489C420.344 904.595 419.904 903.587 419.918 902.465C419.933 901.344 420.373 900.35 421.239 899.498C422.105 898.632 423.085 898.192 424.192 898.178C425.3 898.164 426.308 898.59 427.189 899.47C427.941 900.222 428.353 901.032 428.438 901.912C428.523 902.792 428.282 903.587 427.714 904.325L425.982 902.593C426.422 901.912 426.379 901.315 425.896 900.833C425.513 900.449 425.073 900.308 424.59 900.407C424.093 900.506 423.596 900.819 423.071 901.344C422.545 901.869 422.247 902.366 422.162 902.849C422.077 903.331 422.204 903.771 422.588 904.14C423.156 904.708 423.809 904.723 424.547 904.14L426.266 905.858C425.57 906.511 424.76 906.809 423.837 906.753C422.914 906.696 422.048 906.284 421.267 905.489H421.239Z" fill="white"/>
<path d="M424.675 908.57L432.57 900.677L434.373 902.48L431.434 905.418L431.462 905.447C432.471 905.305 433.323 905.574 434.004 906.256C434.615 906.866 434.899 907.548 434.856 908.286C434.814 909.024 434.473 909.72 433.834 910.358L430.156 914.035L428.353 912.232L431.661 908.925C431.974 908.612 432.144 908.3 432.172 907.959C432.201 907.633 432.073 907.32 431.789 907.036C431.491 906.738 431.15 906.611 430.738 906.653C430.326 906.696 429.957 906.88 429.602 907.235L426.478 910.358L424.675 908.555V908.57Z" fill="white"/>
<path d="M436.589 919.132C435.467 919.132 434.459 918.706 433.565 917.797C432.67 916.903 432.216 915.881 432.23 914.759C432.23 913.638 432.67 912.644 433.536 911.778C434.402 910.912 435.396 910.486 436.518 910.472C437.64 910.472 438.662 910.912 439.557 911.806C440.452 912.701 440.892 913.709 440.892 914.844C440.892 915.98 440.452 916.96 439.585 917.826C438.719 918.692 437.725 919.117 436.603 919.132H436.589ZM434.417 915.171C434.317 915.682 434.459 916.136 434.843 916.52C435.226 916.903 435.68 917.045 436.192 916.945C436.717 916.846 437.228 916.534 437.754 916.008C438.279 915.483 438.591 914.958 438.691 914.447C438.79 913.922 438.648 913.467 438.265 913.084C437.881 912.701 437.427 912.559 436.916 912.658C436.405 912.758 435.879 913.084 435.354 913.609C434.828 914.135 434.516 914.646 434.417 915.171ZM439.33 910.586L441.588 909.578L443.661 911.65L440.693 911.948L439.33 910.586Z" fill="white"/>
<path d="M438.421 922.311L442.34 914.929L444.172 916.761L442.454 919.714L441.616 921.062L441.644 921.091C442.17 920.75 442.624 920.452 443.022 920.21L445.933 918.493L447.452 920.012L445.762 922.936L444.896 924.341L444.924 924.37C445.45 924.029 445.904 923.745 446.288 923.532L449.255 921.815L451.03 923.589L443.646 927.507L441.957 925.818L443.859 922.595L444.626 921.332L444.598 921.304C444.129 921.602 443.703 921.857 443.334 922.07L440.096 923.958L438.435 922.297L438.421 922.311Z" fill="white"/>
<path d="M312.674 896.545L320.569 888.652L324.375 892.457C325.17 893.238 325.596 894.047 325.681 894.842C325.767 895.68 325.483 896.404 324.858 897.042C324.105 897.795 323.225 897.937 322.202 897.482L322.174 897.511C322.472 898.079 322.586 898.661 322.486 899.257C322.401 899.853 322.117 900.393 321.649 900.847C320.882 901.613 320.03 901.926 319.079 901.812C318.227 901.713 317.389 901.244 316.565 900.435L312.66 896.531L312.674 896.545ZM316.168 896.9L317.914 898.646C318.227 898.959 318.567 899.129 318.922 899.143C319.277 899.158 319.604 899.03 319.874 898.746C320.172 898.448 320.314 898.107 320.271 897.738C320.243 897.369 320.072 897.042 319.76 896.73L318.042 895.012L316.168 896.886V896.9ZM319.377 893.706L320.967 895.296C321.251 895.58 321.549 895.75 321.862 895.779C322.174 895.807 322.458 895.708 322.699 895.452C322.941 895.211 323.054 894.927 323.026 894.629C322.998 894.317 322.841 894.019 322.557 893.735L320.953 892.131L319.377 893.706Z" fill="white"/>
<path d="M322.557 906.767C321.649 905.858 321.194 904.836 321.208 903.729C321.223 902.621 321.663 901.628 322.543 900.748C323.424 899.867 324.375 899.456 325.482 899.427C326.59 899.399 327.57 899.811 328.422 900.677C329.189 901.443 329.6 902.323 329.643 903.317C329.7 904.609 329.118 905.858 327.882 907.065L323.821 903.005C323.495 903.459 323.324 903.899 323.324 904.325C323.324 904.751 323.495 905.148 323.864 905.517C324.332 905.986 324.829 906.114 325.369 905.901L327.13 907.661C326.448 908.073 325.695 908.2 324.843 908.044C324.006 907.902 323.239 907.476 322.557 906.795V906.767ZM324.929 901.926L327.158 904.155C327.47 903.786 327.627 903.402 327.627 903.019C327.627 902.621 327.485 902.281 327.186 901.983C326.547 901.344 325.795 901.33 324.929 901.926Z" fill="white"/>
<path d="M326.15 910.018L331.802 904.368L333.52 906.085L332.711 906.894L332.739 906.923C333.776 906.667 334.67 906.923 335.423 907.661C336.161 908.399 336.36 909.265 336.019 910.245L336.048 910.273C337.141 910.032 338.064 910.301 338.817 911.054C339.441 911.678 339.725 912.346 339.669 913.07C339.612 913.78 339.257 914.475 338.604 915.128L334.926 918.805L333.123 917.002L336.474 913.638C337.113 912.999 337.169 912.417 336.644 911.877C336.36 911.593 336.048 911.48 335.679 911.537C335.309 911.593 334.954 911.792 334.614 912.133L331.447 915.298L329.644 913.496L332.995 910.145C333.634 909.507 333.691 908.924 333.165 908.385C332.881 908.101 332.569 907.988 332.2 908.044C331.83 908.101 331.475 908.3 331.135 908.641L327.968 911.806L326.165 910.003L326.15 910.018Z" fill="white"/>
<path d="M341.372 923.901C340.251 923.901 339.242 923.475 338.348 922.567C337.453 921.673 336.999 920.65 337.013 919.529C337.013 918.407 337.453 917.414 338.319 916.548C339.186 915.682 340.18 915.256 341.301 915.242C342.423 915.242 343.446 915.682 344.34 916.576C345.235 917.47 345.689 918.493 345.675 919.614C345.675 920.736 345.235 921.729 344.369 922.595C343.502 923.461 342.508 923.887 341.387 923.901H341.372ZM339.2 919.926C339.1 920.437 339.242 920.892 339.626 921.275C340.009 921.658 340.464 921.8 340.975 921.701C341.5 921.602 342.011 921.289 342.537 920.764C343.062 920.239 343.375 919.714 343.474 919.188C343.573 918.663 343.431 918.209 343.048 917.825C342.665 917.442 342.21 917.3 341.699 917.4C341.188 917.499 340.662 917.825 340.137 918.351C339.612 918.876 339.299 919.387 339.2 919.912V919.926Z" fill="white"/>
<path d="M343.204 927.067L347.123 919.685L348.955 921.516L347.237 924.469L346.399 925.818L346.427 925.846C346.953 925.506 347.407 925.207 347.805 924.966L350.716 923.248L352.235 924.767L350.545 927.692L349.679 929.097L349.708 929.126C350.233 928.785 350.687 928.501 351.071 928.288L354.039 926.57L355.814 928.345L348.43 932.263L346.74 930.573L348.643 927.351L349.409 926.088L349.381 926.059C348.912 926.357 348.486 926.613 348.117 926.826L344.88 928.714L343.218 927.053L343.204 927.067Z" fill="white"/>
<path d="M355.984 938.495C354.862 938.495 353.854 938.055 352.959 937.16C352.065 936.266 351.61 935.244 351.624 934.122C351.624 933.001 352.065 932.007 352.931 931.141C353.797 930.275 354.791 929.85 355.913 929.835C357.035 929.835 358.057 930.275 358.951 931.17C359.846 932.064 360.286 933.072 360.286 934.208C360.286 935.329 359.846 936.323 358.98 937.189C358.114 938.055 357.12 938.481 355.998 938.495H355.984ZM353.797 934.52C353.698 935.031 353.84 935.485 354.223 935.869C354.606 936.252 355.061 936.394 355.572 936.295C356.083 936.195 356.609 935.883 357.134 935.358C357.659 934.832 357.972 934.307 358.071 933.796C358.17 933.285 358.028 932.816 357.645 932.433C357.262 932.05 356.807 931.908 356.296 932.021C355.785 932.121 355.26 932.433 354.734 932.973C354.209 933.498 353.896 934.009 353.797 934.534V934.52Z" fill="white"/>
<path d="M791.854 949.536L799.749 941.643L803.526 945.419C804.335 946.228 804.804 947.094 804.917 948.002C805.031 948.911 804.733 949.734 804.023 950.444C803.071 951.395 801.978 951.58 800.743 950.984L800.714 951.012C801.154 951.892 801.055 952.758 800.416 953.61C800.203 953.908 799.919 954.263 799.55 954.66C799.195 955.058 798.925 955.37 798.769 955.583C798.613 955.796 798.556 955.967 798.613 956.08L798.513 956.179L796.61 954.277C796.582 954.178 796.653 954.022 796.795 953.823C796.937 953.61 797.164 953.34 797.462 952.985C797.761 952.645 797.988 952.361 798.144 952.148C798.797 951.296 798.726 950.487 797.959 949.706L796.781 948.528L793.827 951.48L791.868 949.521L791.854 949.536ZM798.215 947.094L799.678 948.57C800.061 948.954 800.43 949.152 800.799 949.195C801.169 949.223 801.509 949.081 801.808 948.783C802.106 948.485 802.248 948.159 802.234 947.79C802.234 947.42 802.035 947.051 801.666 946.682L800.146 945.163L798.201 947.108L798.215 947.094Z" fill="white"/>
<path d="M804.733 961.063C803.611 961.063 802.603 960.637 801.708 959.728C800.814 958.834 800.359 957.812 800.373 956.69C800.373 955.569 800.814 954.575 801.68 953.709C802.546 952.843 803.54 952.417 804.662 952.403C805.784 952.403 806.806 952.843 807.701 953.738C808.595 954.632 809.035 955.64 809.035 956.776C809.035 957.911 808.595 958.891 807.729 959.757C806.863 960.623 805.869 961.049 804.747 961.063H804.733ZM802.546 957.088C802.447 957.599 802.589 958.053 802.972 958.437C803.355 958.82 803.81 958.962 804.321 958.862C804.846 958.763 805.358 958.451 805.883 957.926C806.408 957.4 806.721 956.875 806.82 956.364C806.92 955.839 806.777 955.384 806.394 955.001C806.011 954.618 805.556 954.476 805.045 954.575C804.534 954.675 804.009 955.001 803.483 955.526C802.958 956.052 802.645 956.563 802.546 957.088Z" fill="white"/>
<path d="M805.5 963.178L811.152 957.528L812.884 959.26L812.117 960.026L812.146 960.055C813.211 959.856 814.105 960.126 814.829 960.864C815.44 961.475 815.724 962.156 815.681 962.894C815.639 963.632 815.298 964.328 814.659 964.967L810.981 968.644L809.178 966.841L812.486 963.533C812.799 963.221 812.969 962.908 812.998 962.568C813.026 962.241 812.898 961.929 812.614 961.645C812.316 961.347 811.975 961.219 811.563 961.262C811.152 961.304 810.782 961.489 810.427 961.844L807.303 964.967L805.5 963.164V963.178Z" fill="white"/>
<path d="M813.835 971.866C813.096 971.128 812.77 970.262 812.855 969.268C812.94 968.274 813.437 967.309 814.374 966.386C815.255 965.506 816.206 965.009 817.229 964.924C818.251 964.825 819.117 965.137 819.841 965.875C820.523 966.557 820.779 967.352 820.608 968.26L820.637 968.289L823.519 965.407L825.323 967.21L817.427 975.103L815.709 973.385L816.476 972.618L816.448 972.59C815.454 972.846 814.587 972.604 813.835 971.866ZM815.723 970.901C816.093 971.27 816.533 971.412 817.03 971.341C817.527 971.27 818.024 970.986 818.492 970.517C818.989 970.021 819.288 969.524 819.387 969.027C819.486 968.53 819.344 968.09 818.961 967.707C818.606 967.352 818.18 967.224 817.683 967.309C817.186 967.394 816.689 967.692 816.206 968.175C815.723 968.658 815.425 969.155 815.34 969.637C815.255 970.12 815.383 970.546 815.723 970.887V970.901Z" fill="white"/>
<path d="M823.917 980.242C822.795 980.242 821.787 979.816 820.893 978.907C819.998 978.013 819.544 976.991 819.558 975.869C819.558 974.748 819.998 973.754 820.864 972.888C821.73 972.022 822.724 971.596 823.846 971.582C824.968 971.582 825.99 972.022 826.885 972.917C827.78 973.811 828.22 974.819 828.22 975.94C828.22 977.062 827.78 978.056 826.913 978.922C826.047 979.787 825.053 980.213 823.931 980.228L823.917 980.242ZM821.731 976.267C821.631 976.778 821.773 977.232 822.156 977.615C822.54 977.999 822.994 978.141 823.506 978.041C824.031 977.942 824.542 977.63 825.067 977.104C825.593 976.579 825.905 976.054 826.005 975.543C826.104 975.018 825.962 974.563 825.579 974.18C825.195 973.797 824.741 973.655 824.23 973.754C823.718 973.853 823.193 974.18 822.668 974.705C822.142 975.231 821.83 975.742 821.731 976.267Z" fill="white"/>
<path d="M833.9 989.626C832.409 989.682 831.074 989.129 829.895 987.95C828.717 986.772 828.163 985.438 828.22 983.961C828.277 982.471 828.916 981.136 830.108 979.93C831.301 978.723 832.65 978.098 834.127 978.041C835.604 977.985 836.939 978.538 838.117 979.717C839.296 980.895 839.85 982.229 839.793 983.72C839.736 985.21 839.111 986.545 837.904 987.752C836.697 988.958 835.362 989.583 833.871 989.64L833.9 989.626ZM831.5 986.36C832.125 986.985 832.821 987.212 833.616 987.07C834.411 986.928 835.178 986.488 835.93 985.736C836.683 984.983 837.123 984.217 837.279 983.408C837.421 982.613 837.18 981.903 836.569 981.278C835.959 980.668 835.249 980.426 834.439 980.568C833.63 980.71 832.849 981.15 832.096 981.903C831.358 982.641 830.918 983.422 830.776 984.231C830.634 985.04 830.875 985.75 831.486 986.36H831.5Z" fill="white"/>
<path d="M834.751 992.422L842.646 984.529L844.606 986.488L842.987 992.791L842.518 994.339L842.547 994.367C843.172 993.714 843.569 993.302 843.754 993.118L847.502 989.37L849.419 991.286L841.524 999.179L839.565 997.22L841.155 990.988L841.652 989.37L841.624 989.342C840.956 990.037 840.53 990.477 840.36 990.662L836.682 994.339L834.765 992.422H834.751Z" fill="white"/>
<path d="M842.349 1000.02L843.911 998.455L851.408 997.788L852.53 997.731L852.558 997.703C852.161 997.334 851.905 997.093 851.792 996.979L848.881 994.069L850.542 992.408L856.691 998.555L855.157 1000.09L847.872 1000.76L846.523 1000.83L846.495 1000.85C846.935 1001.27 847.233 1001.54 847.39 1001.71L850.613 1004.93L848.952 1006.59L842.377 1000.02H842.349Z" fill="white"/>
<path d="M841.901 772.456L834.006 764.563L837.556 761.014C838.479 760.091 839.444 759.609 840.438 759.595C841.461 759.552 842.384 759.935 843.179 760.744C843.946 761.511 844.315 762.377 844.315 763.342C844.315 764.308 843.903 765.202 843.094 765.997L841.248 767.842L843.889 770.483L841.901 772.47V772.456ZM839.7 766.281L841.148 764.833C841.489 764.492 841.674 764.123 841.674 763.74C841.674 763.356 841.518 763.002 841.205 762.689C840.893 762.377 840.538 762.221 840.169 762.235C839.799 762.249 839.43 762.434 839.089 762.774L837.641 764.222L839.714 766.281H839.7Z" fill="white"/>
<path d="M849.001 765.358L841.105 757.465L842.923 755.648L850.818 763.541L849.001 765.358Z" fill="white"/>
<path d="M853.502 761.142C852.92 761.724 852.295 762.036 851.642 762.093C850.989 762.15 850.392 761.894 849.839 761.355C849.271 760.787 849.043 760.177 849.157 759.524C849.285 758.885 849.64 758.175 850.222 757.408C850.705 756.784 851.017 756.344 851.131 756.046C851.244 755.762 851.216 755.52 851.031 755.336C850.634 754.938 850.165 754.981 849.654 755.506C849.1 756.06 849.043 756.613 849.469 757.153L847.808 758.814C847.268 758.232 847.041 757.536 847.112 756.727C847.183 755.918 847.623 755.109 848.433 754.299C849.242 753.49 850.009 753.036 850.733 752.937C851.557 752.809 852.338 753.107 853.062 753.831L855.916 756.684C856.371 757.139 856.697 757.337 856.924 757.295L856.995 757.366L855.249 759.112C855.078 759.084 854.794 758.942 854.425 758.672L854.397 758.7C854.553 759.58 854.255 760.39 853.488 761.156L853.502 761.142ZM852.934 759.41C853.275 759.069 853.46 758.7 853.474 758.303C853.502 757.905 853.36 757.55 853.048 757.252L852.38 756.585C852.295 756.855 852.082 757.252 851.756 757.806C851.472 758.246 851.315 758.601 851.287 758.856C851.244 759.112 851.33 759.353 851.543 759.552C851.954 759.978 852.423 759.921 852.948 759.41H852.934Z" fill="white"/>
<path d="M860.588 754.115C859.693 755.009 858.685 755.449 857.563 755.435C856.441 755.421 855.447 754.981 854.595 754.115C853.729 753.249 853.289 752.269 853.275 751.162C853.261 750.055 853.687 749.047 854.567 748.167C855.32 747.414 856.129 747.003 857.009 746.917C857.89 746.832 858.685 747.074 859.423 747.641L857.691 749.373C857.009 748.933 856.413 748.962 855.93 749.458C855.547 749.842 855.405 750.282 855.504 750.765C855.603 751.261 855.916 751.758 856.441 752.284C856.967 752.809 857.464 753.107 857.946 753.192C858.429 753.291 858.869 753.15 859.239 752.766C859.807 752.198 859.821 751.545 859.239 750.807L860.957 749.089C861.61 749.785 861.908 750.594 861.851 751.517C861.795 752.44 861.383 753.306 860.588 754.086V754.115Z" fill="white"/>
<path d="M867.12 747.23L857.053 741.495L859.027 739.521L863.13 742.034L865.445 743.624L865.473 743.596C864.891 742.73 864.394 741.977 863.982 741.338L861.327 737.207L863.144 735.39L867.248 738.016L869.52 739.535L869.549 739.507C868.895 738.57 868.37 737.775 867.972 737.136L865.459 733.062L867.419 731.103L873.155 741.168L871.238 743.084L866.623 740.132L864.877 738.939V738.968C865.331 739.621 865.729 740.188 866.055 740.7L869.009 745.313L867.092 747.23H867.12Z" fill="white"/>
<path d="M869.336 732.153L867.873 730.691L869.676 728.888L871.139 730.351L869.336 732.153ZM875.768 738.584L870.117 732.934L871.92 731.131L877.572 736.781L875.768 738.584Z" fill="white"/>
<path d="M878.437 735.915L870.542 728.022L872.36 726.205L880.255 734.098L878.437 735.915Z" fill="white"/>
<path d="M883.72 730.989C882.896 731.813 882.058 732.295 881.206 732.423C880.354 732.551 879.616 732.324 878.948 731.728L880.652 730.024C881.277 730.521 881.902 730.45 882.527 729.825C882.796 729.556 882.967 729.286 883.024 729.03C883.08 728.775 883.024 728.562 882.853 728.377C882.796 728.321 882.74 728.278 882.683 728.25C882.626 728.221 882.555 728.207 882.484 728.207C882.413 728.207 882.342 728.207 882.285 728.207C882.229 728.207 882.143 728.235 882.058 728.278C881.973 728.321 881.888 728.349 881.831 728.391C881.774 728.42 881.675 728.477 881.575 728.548C881.462 728.619 881.377 728.675 881.32 728.718C881.263 728.761 881.164 728.832 881.036 728.917C880.908 729.002 880.809 729.073 880.752 729.115C880.482 729.314 880.241 729.47 880.042 729.598C879.843 729.726 879.602 729.839 879.318 729.939C879.034 730.052 878.778 730.109 878.537 730.109C878.295 730.109 878.04 730.067 877.77 729.953C877.486 729.839 877.23 729.655 876.975 729.399C876.407 728.832 876.194 728.15 876.336 727.369C876.478 726.589 876.903 725.85 877.599 725.155C878.38 724.36 879.161 723.92 879.914 723.806C880.666 723.693 881.348 723.891 881.959 724.417L880.297 726.078C879.8 725.694 879.275 725.779 878.735 726.319C878.494 726.56 878.352 726.787 878.295 727.014C878.238 727.242 878.295 727.44 878.466 727.611C878.508 727.653 878.565 727.682 878.608 727.71C878.664 727.738 878.721 727.738 878.778 727.738C878.835 727.738 878.906 727.738 878.948 727.71C878.991 727.682 879.076 727.682 879.147 727.639C879.218 727.596 879.303 727.568 879.36 727.54C879.417 727.511 879.502 727.455 879.602 727.384C879.701 727.313 879.786 727.256 879.843 727.213C879.914 727.171 879.999 727.114 880.113 727.029C880.226 726.943 880.311 726.887 880.382 726.83C880.681 726.631 880.922 726.461 881.121 726.333C881.32 726.205 881.575 726.078 881.888 725.964C882.2 725.836 882.47 725.779 882.726 725.765C882.967 725.765 883.251 725.822 883.549 725.936C883.847 726.049 884.145 726.248 884.415 726.532C885.026 727.142 885.239 727.838 885.097 728.633C884.941 729.428 884.486 730.209 883.72 730.975V730.989Z" fill="white"/>
<path d="M891.047 721.975C891.047 723.096 890.621 724.104 889.712 724.999C888.817 725.893 887.795 726.347 886.673 726.333C885.551 726.333 884.557 725.893 883.691 725.027C882.825 724.161 882.399 723.167 882.385 722.046C882.385 720.924 882.825 719.902 883.72 719.008C884.614 718.114 885.622 717.673 886.744 717.673C887.866 717.673 888.86 718.114 889.726 718.979C890.592 719.845 891.018 720.839 891.032 721.961L891.047 721.975ZM887.071 724.161C887.582 724.26 888.036 724.118 888.42 723.735C888.803 723.352 888.945 722.898 888.846 722.387C888.746 721.861 888.434 721.35 887.908 720.825C887.383 720.3 886.858 719.987 886.346 719.888C885.821 719.789 885.367 719.931 884.983 720.314C884.6 720.697 884.458 721.152 884.572 721.663C884.671 722.174 884.983 722.699 885.523 723.224C886.048 723.749 886.56 724.062 887.085 724.161H887.071Z" fill="white"/>
<path d="M893.149 721.208L887.497 715.558L889.229 713.826L889.996 714.593L890.025 714.564C889.84 713.5 890.096 712.605 890.834 711.881C891.445 711.271 892.126 710.987 892.865 711.03C893.603 711.072 894.299 711.413 894.938 712.052L898.616 715.729L896.812 717.531L893.504 714.224C893.191 713.911 892.879 713.741 892.538 713.713C892.211 713.684 891.899 713.812 891.615 714.096C891.317 714.394 891.189 714.735 891.232 715.147C891.274 715.558 891.459 715.927 891.814 716.282L894.938 719.405L893.134 721.208H893.149Z" fill="white"/>
<path d="M901.256 713.386C900.674 713.968 900.049 714.281 899.396 714.337C898.743 714.394 898.146 714.139 897.593 713.599C897.025 713.031 896.797 712.421 896.911 711.768C897.039 711.129 897.394 710.419 897.976 709.653C898.459 709.028 898.757 708.588 898.885 708.29C899.013 707.992 898.97 707.765 898.785 707.58C898.374 707.183 897.919 707.225 897.408 707.75C896.854 708.304 896.797 708.858 897.223 709.397L895.562 711.058C895.022 710.476 894.795 709.78 894.866 708.971C894.937 708.162 895.377 707.353 896.187 706.544C896.996 705.735 897.763 705.28 898.487 705.181C899.311 705.053 900.092 705.351 900.816 706.075L903.67 708.929C904.125 709.383 904.451 709.582 904.678 709.539L904.749 709.61L903.003 711.356C902.832 711.328 902.548 711.186 902.193 710.916L902.165 710.945C902.321 711.825 902.023 712.634 901.256 713.4V713.386ZM900.688 711.668C901.029 711.328 901.213 710.959 901.228 710.561C901.256 710.164 901.114 709.809 900.816 709.511L900.148 708.843C900.063 709.113 899.85 709.525 899.524 710.064C899.24 710.504 899.084 710.859 899.055 711.115C899.013 711.37 899.098 711.612 899.311 711.81C899.737 712.236 900.191 712.18 900.717 711.668H900.688Z" fill="white"/>
<path d="M795.311 677.768L787.416 669.875L790.043 667.248L794.459 669.747L796.717 671.095L796.745 671.067C796.078 669.988 795.624 669.25 795.382 668.824L792.897 664.395L795.553 661.74L803.448 669.633L801.658 671.422L797.683 667.447L796.135 665.829L796.106 665.857C796.717 666.822 797.072 667.433 797.214 667.688L800.168 672.913L798.549 674.531L793.352 671.578L791.506 670.457L791.477 670.485C792.343 671.308 792.883 671.834 793.096 672.047L797.058 676.007L795.297 677.768H795.311Z" fill="white"/>
<path d="M806.217 667.149C805.635 667.731 805.024 668.043 804.357 668.1C803.689 668.157 803.107 667.901 802.553 667.362C801.985 666.794 801.758 666.184 801.872 665.531C802 664.892 802.34 664.182 802.937 663.415C803.42 662.791 803.718 662.351 803.846 662.052C803.959 661.769 803.931 661.527 803.746 661.343C803.349 660.945 802.88 660.988 802.369 661.513C801.815 662.067 801.758 662.62 802.184 663.16L800.523 664.821C799.983 664.239 799.756 663.543 799.827 662.734C799.898 661.925 800.338 661.116 801.148 660.306C801.957 659.497 802.724 659.043 803.448 658.944C804.272 658.816 805.053 659.114 805.777 659.838L808.631 662.691C809.085 663.146 809.412 663.344 809.639 663.302L809.71 663.373L807.964 665.119C807.793 665.09 807.509 664.949 807.14 664.679L807.112 664.707C807.268 665.587 806.97 666.397 806.203 667.163L806.217 667.149ZM805.649 665.417C805.99 665.076 806.174 664.707 806.189 664.31C806.217 663.912 806.075 663.557 805.763 663.259L805.095 662.592C805.01 662.862 804.797 663.259 804.47 663.813C804.186 664.253 804.03 664.608 804.002 664.863C803.959 665.119 804.059 665.36 804.257 665.559C804.669 665.985 805.138 665.928 805.663 665.417H805.649Z" fill="white"/>
<path d="M810.377 662.691L804.726 657.041L806.444 655.324L807.324 656.204L807.353 656.175C807.083 655.139 807.282 654.301 807.921 653.663C808.091 653.492 808.219 653.393 808.318 653.35L809.866 654.898L809.823 654.94C809.184 655.423 808.844 655.962 808.787 656.559C808.744 657.155 809.014 657.765 809.625 658.362L812.166 660.903L810.363 662.706L810.377 662.691Z" fill="white"/>
<path d="M816.782 660.037L815.376 658.631L816.001 658.007C816.498 657.51 816.54 657.07 816.143 656.672C815.958 656.488 815.447 656.204 814.623 655.849L808.603 653.166L810.505 651.263L813.672 652.91L815.333 653.861L815.362 653.833C814.964 653.223 814.637 652.683 814.396 652.2L812.72 649.049L814.524 647.246L818.301 654.926C818.741 655.82 818.926 656.544 818.883 657.126C818.826 657.708 818.528 658.276 817.96 658.844L816.796 660.008L816.782 660.037Z" fill="white"/>
<path d="M820.572 652.513L814.921 646.863L816.639 645.145L817.448 645.954L817.477 645.926C817.221 644.889 817.477 643.995 818.215 643.243C818.954 642.49 819.82 642.306 820.8 642.646V642.618C820.587 641.525 820.842 640.602 821.609 639.85C822.234 639.225 822.901 638.941 823.625 638.998C824.35 639.055 825.031 639.41 825.684 640.063L829.362 643.74L827.559 645.542L824.208 642.192C823.569 641.553 822.986 641.497 822.447 642.022C822.163 642.306 822.049 642.618 822.106 642.987C822.163 643.356 822.362 643.711 822.702 644.052L825.869 647.218L824.066 649.021L820.714 645.67C820.075 645.031 819.493 644.975 818.954 645.5C818.67 645.784 818.556 646.11 818.613 646.465C818.67 646.834 818.868 647.189 819.209 647.53L822.376 650.696L820.572 652.499V652.513Z" fill="white"/>
<path d="M834.446 637.295C834.446 638.416 834.02 639.424 833.111 640.318C832.203 641.213 831.194 641.667 830.073 641.653C828.951 641.653 827.957 641.213 827.091 640.347C826.224 639.481 825.798 638.487 825.784 637.366C825.784 636.244 826.224 635.222 827.119 634.328C828.014 633.433 829.022 632.993 830.158 632.993C831.28 632.993 832.274 633.433 833.14 634.299C834.006 635.165 834.432 636.159 834.446 637.28V637.295ZM830.47 639.481C830.981 639.58 831.436 639.438 831.819 639.055C832.203 638.672 832.345 638.217 832.245 637.706C832.146 637.195 831.833 636.67 831.308 636.145C830.783 635.619 830.257 635.307 829.746 635.208C829.235 635.108 828.766 635.25 828.383 635.634C827.999 636.017 827.857 636.471 827.971 636.982C828.07 637.493 828.383 638.019 828.922 638.544C829.448 639.069 829.959 639.381 830.484 639.481H830.47Z" fill="white"/>
<path d="M836.562 636.528L830.91 630.878L832.643 629.146L833.409 629.913L833.438 629.884C833.253 628.819 833.509 627.925 834.247 627.201C834.858 626.591 835.539 626.307 836.278 626.349C837.016 626.392 837.712 626.733 838.351 627.371L842.029 631.048L840.225 632.851L836.917 629.543C836.604 629.231 836.292 629.061 835.951 629.032C835.625 629.004 835.312 629.132 835.028 629.416C834.73 629.714 834.602 630.054 834.645 630.466C834.687 630.878 834.872 631.247 835.227 631.602L838.351 634.725L836.548 636.528H836.562Z" fill="white"/>
<path d="M845.053 628.166C844.485 628.734 843.917 629.075 843.377 629.146C842.838 629.231 842.27 628.976 841.702 628.408L838.663 625.37L837.91 626.122L836.789 625.001L837.541 624.248L835.752 622.46L837.513 620.699L839.302 622.488L840.324 621.466L841.446 622.587L840.424 623.609L843.079 626.264C843.292 626.477 843.477 626.562 843.676 626.534C843.86 626.505 844.059 626.392 844.272 626.193C844.329 626.136 844.414 626.051 844.499 625.952C844.598 625.852 844.641 625.796 844.655 625.781L845.962 627.102C845.82 627.371 845.521 627.726 845.067 628.166H845.053Z" fill="white"/>
<path d="M735.865 581.287C734.8 582.351 733.721 582.976 732.627 583.146C731.534 583.317 730.554 582.976 729.674 582.138L731.634 580.179C732.471 580.847 733.352 580.705 734.303 579.754C734.658 579.399 734.885 579.03 734.999 578.646C735.112 578.263 735.027 577.936 734.743 577.653C734.559 577.468 734.317 577.383 734.033 577.411C733.749 577.44 733.508 577.496 733.295 577.61C733.082 577.724 732.698 577.936 732.145 578.263C732.116 578.277 732.102 578.291 732.088 578.291C732.088 578.291 732.059 578.291 732.045 578.32C732.031 578.32 732.003 578.348 731.989 578.362C731.563 578.618 731.222 578.831 730.938 578.987C730.654 579.143 730.313 579.285 729.915 579.441C729.504 579.583 729.149 579.668 728.836 579.668C728.524 579.668 728.183 579.612 727.814 579.47C727.445 579.328 727.104 579.101 726.791 578.788C725.982 577.979 725.67 577.085 725.84 576.105C726.01 575.126 726.564 574.16 727.501 573.223C728.396 572.329 729.333 571.804 730.327 571.633C731.321 571.463 732.216 571.775 733.054 572.528L731.137 574.444C730.796 574.174 730.441 574.075 730.043 574.132C729.66 574.189 729.276 574.402 728.907 574.771C728.566 575.111 728.368 575.452 728.282 575.793C728.211 576.134 728.282 576.417 728.51 576.645C728.765 576.9 729.063 576.957 729.433 576.815C729.802 576.673 730.398 576.346 731.25 575.807C731.79 575.48 732.244 575.225 732.627 575.04C733.011 574.856 733.437 574.714 733.905 574.615C734.374 574.501 734.828 574.529 735.269 574.671C735.709 574.813 736.121 575.097 736.532 575.495C737.328 576.304 737.654 577.227 737.512 578.291C737.356 579.356 736.816 580.364 735.879 581.301L735.865 581.287Z" fill="white"/>
<path d="M739.77 577.014L737.228 574.473L737.072 575.48L735.78 574.189L735.936 573.181L731.875 569.121L733.693 567.304L736.405 570.015L736.575 568.865L737.867 570.157L737.697 571.307L741.588 575.197L739.77 577.014Z" fill="white"/>
<path d="M746.927 568.51C746.927 569.632 746.501 570.64 745.592 571.534C744.697 572.428 743.675 572.883 742.553 572.868C741.431 572.868 740.437 572.428 739.571 571.562C738.705 570.696 738.279 569.703 738.265 568.581C738.265 567.46 738.705 566.438 739.599 565.543C740.494 564.649 741.502 564.195 742.638 564.209C743.76 564.209 744.754 564.649 745.62 565.515C746.486 566.381 746.912 567.375 746.927 568.496V568.51ZM742.951 570.696C743.462 570.796 743.916 570.654 744.3 570.271C744.683 569.887 744.825 569.433 744.726 568.922C744.626 568.411 744.314 567.886 743.788 567.36C743.263 566.835 742.738 566.523 742.226 566.423C741.715 566.324 741.247 566.466 740.863 566.849C740.48 567.233 740.338 567.687 740.437 568.198C740.537 568.709 740.863 569.234 741.389 569.76C741.914 570.285 742.425 570.597 742.951 570.696Z" fill="white"/>
<path d="M751.428 565.699C750.69 566.438 749.824 566.764 748.83 566.679C747.836 566.594 746.87 566.097 745.947 565.16C745.024 564.223 744.57 563.329 744.484 562.307C744.399 561.284 744.712 560.418 745.436 559.694C746.117 559.013 746.913 558.757 747.821 558.928L747.85 558.899L744.967 556.018L746.771 554.215L754.666 562.108L752.947 563.825L752.181 563.059L752.152 563.087C752.408 564.081 752.152 564.947 751.428 565.699ZM750.477 563.811C750.846 563.442 750.988 563.002 750.917 562.505C750.846 562.008 750.562 561.512 750.093 561.043C749.596 560.546 749.099 560.248 748.602 560.149C748.105 560.049 747.665 560.191 747.282 560.575C746.927 560.929 746.799 561.355 746.884 561.852C746.984 562.349 747.268 562.846 747.75 563.329C748.233 563.811 748.73 564.109 749.213 564.195C749.696 564.28 750.122 564.152 750.463 563.811H750.477Z" fill="white"/>
<path d="M759.806 555.634C759.806 556.756 759.38 557.764 758.472 558.658C757.577 559.552 756.569 560.007 755.433 559.993C754.311 559.993 753.317 559.552 752.451 558.686C751.585 557.82 751.159 556.827 751.145 555.705C751.145 554.584 751.585 553.562 752.479 552.667C753.374 551.773 754.382 551.333 755.504 551.333C756.626 551.333 757.62 551.773 758.486 552.639C759.352 553.505 759.778 554.499 759.792 555.62L759.806 555.634ZM755.845 557.806C756.356 557.906 756.81 557.764 757.194 557.38C757.577 556.997 757.719 556.543 757.62 556.032C757.52 555.507 757.208 554.995 756.682 554.47C756.157 553.945 755.632 553.633 755.12 553.533C754.595 553.434 754.141 553.576 753.757 553.959C753.374 554.342 753.232 554.797 753.345 555.308C753.445 555.819 753.757 556.344 754.297 556.869C754.822 557.395 755.334 557.707 755.859 557.806H755.845Z" fill="white"/>
<path d="M762.986 553.803L755.603 549.885L757.434 548.054L760.402 549.771L761.751 550.609L761.779 550.581C761.439 550.055 761.141 549.601 760.913 549.203L759.195 546.293L760.715 544.774L763.64 546.464L765.045 547.33V547.301C764.733 546.776 764.449 546.322 764.222 545.938L762.504 542.971L764.279 541.197L768.198 548.579L766.508 550.268L763.285 548.366L762.021 547.599L761.992 547.628C762.291 548.096 762.546 548.522 762.759 548.891L764.648 552.128L762.986 553.789V553.803Z" fill="white"/>
<path d="M763.91 539.99L762.447 538.528L764.251 536.725L765.713 538.187L763.91 539.99ZM770.357 546.435L764.705 540.785L766.508 538.982L772.16 544.632L770.357 546.435Z" fill="white"/>
<path d="M775.937 541.183C775.029 542.091 774.006 542.546 772.899 542.531C771.791 542.517 770.797 542.077 769.917 541.197C769.036 540.317 768.625 539.366 768.596 538.258C768.568 537.151 768.979 536.171 769.846 535.32C770.612 534.553 771.493 534.141 772.487 534.099C773.779 534.042 775.029 534.624 776.236 535.859L772.174 539.919C772.629 540.246 773.055 540.416 773.495 540.416C773.921 540.416 774.319 540.246 774.688 539.877C775.156 539.408 775.27 538.911 775.057 538.372L776.818 536.612C777.23 537.293 777.357 538.045 777.201 538.897C777.059 539.735 776.633 540.501 775.952 541.183H775.937ZM771.109 538.812L773.339 536.583C772.97 536.271 772.586 536.115 772.203 536.115C771.805 536.115 771.464 536.257 771.166 536.555C770.527 537.194 770.513 537.946 771.109 538.812Z" fill="white"/>
<path d="M782.129 535.022C781.234 535.916 780.226 536.356 779.104 536.342C777.982 536.328 776.988 535.888 776.136 535.022C775.284 534.156 774.83 533.176 774.816 532.069C774.787 530.961 775.228 529.954 776.108 529.073C776.861 528.321 777.67 527.909 778.55 527.824C779.431 527.739 780.226 527.98 780.964 528.548L779.232 530.28C778.55 529.84 777.954 529.868 777.471 530.365C777.088 530.749 776.946 531.189 777.045 531.671C777.145 532.168 777.457 532.665 777.982 533.19C778.494 533.701 779.005 534.014 779.488 534.099C779.985 534.184 780.411 534.042 780.794 533.673C781.362 533.105 781.376 532.452 780.794 531.714L782.512 529.996C783.165 530.692 783.463 531.501 783.407 532.424C783.35 533.346 782.938 534.212 782.143 534.993L782.129 535.022Z" fill="white"/>
<path d="M644.232 476.211L634.164 470.476L636.138 468.503L640.242 471.015L642.556 472.605L642.585 472.577C642.002 471.711 641.505 470.959 641.094 470.32L638.438 466.189L640.256 464.372L644.36 466.998L646.632 468.517L646.66 468.489C646.007 467.552 645.481 466.757 645.084 466.118L642.57 462.043L644.53 460.084L650.267 470.149L648.35 472.066L643.735 469.113L641.988 467.921L641.96 467.949C642.428 468.602 642.84 469.17 643.167 469.681L646.12 474.295L644.203 476.211H644.232Z" fill="white"/>
<path d="M653.973 466.757C653.391 467.339 652.766 467.651 652.113 467.708C651.46 467.764 650.863 467.509 650.309 466.969C649.741 466.402 649.514 465.791 649.628 465.138C649.756 464.499 650.111 463.79 650.693 463.023C651.176 462.398 651.474 461.958 651.602 461.66C651.715 461.376 651.687 461.135 651.502 460.95C651.09 460.553 650.636 460.595 650.125 461.121C649.571 461.674 649.514 462.228 649.94 462.767L648.279 464.428C647.739 463.846 647.512 463.151 647.583 462.342C647.654 461.532 648.094 460.723 648.904 459.914C649.713 459.105 650.48 458.651 651.204 458.551C652.028 458.423 652.809 458.722 653.533 459.446L656.387 462.299C656.841 462.753 657.168 462.952 657.395 462.909L657.466 462.98L655.72 464.726C655.549 464.698 655.265 464.556 654.896 464.286L654.868 464.315C655.024 465.195 654.726 466.004 653.959 466.771L653.973 466.757ZM653.405 465.039C653.746 464.698 653.93 464.329 653.945 463.932C653.973 463.534 653.831 463.179 653.533 462.881L652.865 462.214C652.78 462.484 652.567 462.881 652.241 463.435C651.957 463.875 651.8 464.23 651.758 464.485C651.715 464.741 651.815 464.982 652.013 465.181C652.439 465.607 652.894 465.55 653.419 465.039H653.405Z" fill="white"/>
<path d="M659.312 461.149L651.928 457.231L653.76 455.4L656.713 457.117L658.062 457.955L658.091 457.927C657.75 457.401 657.452 456.947 657.224 456.55L655.506 453.639L657.026 452.12L659.951 453.81L661.356 454.676L661.385 454.647C661.044 454.122 660.76 453.668 660.547 453.284L658.829 450.317L660.604 448.543L664.523 455.925L662.833 457.614L659.61 455.712L658.346 454.945L658.318 454.974C658.616 455.442 658.871 455.868 659.084 456.237L660.973 459.474L659.312 461.135V461.149Z" fill="white"/>
<path d="M666.682 453.781L661.03 448.131L662.748 446.414L663.629 447.294L663.657 447.265C663.387 446.229 663.586 445.391 664.225 444.753C664.396 444.582 664.523 444.483 664.623 444.44L666.171 445.988L666.128 446.03C665.489 446.513 665.148 447.052 665.091 447.649C665.049 448.245 665.319 448.855 665.929 449.452L668.471 451.993L666.668 453.796L666.682 453.781Z" fill="white"/>
<path d="M670.743 449.721L669.408 448.387L669.238 443.731V442.751L669.195 442.723C668.854 443.077 668.627 443.305 668.514 443.432L666.739 445.193L665.361 443.816L670.005 439.174L671.325 440.494L671.51 444.966V446.13L671.552 446.158C671.936 445.761 672.206 445.477 672.376 445.306L674.421 443.262L675.812 444.653L670.743 449.721Z" fill="white"/>
<path d="M678.539 445.647L677.133 444.242L677.757 443.617C678.254 443.12 678.297 442.68 677.9 442.282C677.715 442.098 677.204 441.814 676.38 441.459L670.359 438.776L672.262 436.874L675.429 438.52L677.09 439.472L677.119 439.443C676.721 438.833 676.394 438.293 676.153 437.811L674.477 434.659L676.281 432.856L680.058 440.536C680.484 441.431 680.683 442.169 680.64 442.737C680.583 443.319 680.285 443.887 679.717 444.454L678.553 445.619L678.539 445.647Z" fill="white"/>
<path d="M684.858 435.951C684.034 436.774 683.196 437.257 682.344 437.385C681.492 437.513 680.754 437.285 680.087 436.689L681.791 434.986C682.415 435.483 683.04 435.412 683.665 434.787C683.935 434.517 684.105 434.247 684.162 433.992C684.219 433.736 684.162 433.523 683.992 433.339C683.935 433.282 683.878 433.24 683.821 433.211C683.764 433.183 683.693 433.169 683.622 433.169C683.551 433.169 683.48 433.169 683.424 433.169C683.367 433.169 683.282 433.197 683.196 433.24C683.111 433.282 683.026 433.311 682.969 433.353C682.912 433.382 682.813 433.438 682.714 433.509C682.6 433.58 682.515 433.637 682.458 433.68C682.401 433.722 682.302 433.793 682.174 433.878C682.046 433.964 681.947 434.035 681.89 434.077C681.62 434.276 681.379 434.432 681.18 434.56C680.981 434.688 680.74 434.801 680.456 434.9C680.172 435.014 679.916 435.071 679.675 435.071C679.433 435.071 679.178 435.028 678.908 434.915C678.638 434.801 678.368 434.617 678.113 434.361C677.545 433.793 677.318 433.112 677.474 432.331C677.63 431.55 678.042 430.812 678.752 430.116C679.547 429.321 680.314 428.881 681.066 428.768C681.819 428.654 682.501 428.853 683.111 429.378L681.45 431.039C680.953 430.656 680.427 430.741 679.888 431.28C679.646 431.522 679.504 431.749 679.448 431.976C679.391 432.203 679.448 432.402 679.618 432.572C679.661 432.615 679.703 432.643 679.76 432.672C679.817 432.7 679.874 432.7 679.93 432.7C679.987 432.7 680.044 432.7 680.101 432.672C680.158 432.643 680.229 432.629 680.3 432.601C680.385 432.558 680.456 432.53 680.513 432.501C680.569 432.473 680.655 432.416 680.754 432.345C680.853 432.274 680.939 432.217 681.01 432.175C681.081 432.132 681.166 432.075 681.279 431.99C681.393 431.919 681.478 431.848 681.549 431.792C681.847 431.593 682.089 431.422 682.288 431.295C682.486 431.167 682.742 431.039 683.054 430.926C683.367 430.798 683.637 430.741 683.892 430.727C684.134 430.727 684.418 430.784 684.716 430.897C685.014 431.011 685.312 431.209 685.582 431.493C686.178 432.104 686.406 432.799 686.264 433.594C686.107 434.389 685.653 435.17 684.886 435.937L684.858 435.951Z" fill="white"/>
<path d="M687.613 432.842L686.278 431.508L686.107 426.851V425.872L686.065 425.843C685.724 426.198 685.497 426.44 685.383 426.553L683.623 428.314L682.245 426.936L686.889 422.294L688.209 423.615L688.394 428.086V429.25L688.436 429.279C688.82 428.881 689.089 428.597 689.26 428.427L691.305 426.383L692.696 427.774L687.627 432.842H687.613Z" fill="white"/>
<path d="M696.118 424.679C695.209 425.588 694.187 426.042 693.079 426.028C691.972 426.014 690.978 425.574 690.097 424.694C689.217 423.813 688.805 422.862 688.777 421.755C688.748 420.648 689.16 419.668 690.026 418.816C690.793 418.05 691.674 417.638 692.668 417.595C693.96 417.539 695.209 418.121 696.416 419.356L692.355 423.416C692.81 423.742 693.25 423.913 693.676 423.913C694.102 423.913 694.499 423.742 694.869 423.373C695.337 422.905 695.451 422.408 695.238 421.868L696.999 420.108C697.41 420.79 697.538 421.542 697.382 422.394C697.24 423.231 696.814 423.998 696.132 424.679H696.118ZM691.29 422.309L693.52 420.08C693.15 419.767 692.767 419.611 692.384 419.611C691.986 419.611 691.645 419.753 691.347 420.051C690.708 420.69 690.694 421.443 691.29 422.309Z" fill="white"/>
<path d="M700.491 419.966L693.107 416.048L694.939 414.217L697.893 415.935L699.242 416.772L699.27 416.744C698.929 416.218 698.631 415.764 698.39 415.367L696.672 412.471L698.191 410.952L701.116 412.641L702.522 413.507V413.479C702.21 412.953 701.926 412.499 701.698 412.116L699.98 409.149L701.755 407.374L705.674 414.756L703.985 416.446L700.761 414.543L699.497 413.777V413.805C699.767 414.274 700.023 414.699 700.236 415.069L702.124 418.305L700.463 419.966H700.491Z" fill="white"/>
<path d="M533.196 429.449L525.301 421.556L527.928 418.93L532.344 421.428L534.602 422.777L534.63 422.749C533.963 421.67 533.508 420.932 533.267 420.506L530.782 416.076L533.437 413.422L541.332 421.315L539.543 423.104L535.567 419.129L534.02 417.51L533.991 417.539C534.602 418.504 534.957 419.114 535.099 419.37L538.052 424.594L536.433 426.212L531.236 423.26L529.39 422.138L529.362 422.167C530.228 422.99 530.768 423.515 530.981 423.728L534.943 427.689L533.182 429.449H533.196Z" fill="white"/>
<path d="M542.468 420.179L539.927 417.638L539.77 418.646L538.478 417.354L538.634 416.346L534.573 412.286L536.391 410.469L539.103 413.18L539.273 412.031L540.566 413.322L540.395 414.472L544.286 418.362L542.468 420.179Z" fill="white"/>
<path d="M549.625 411.676C549.625 412.797 549.199 413.805 548.29 414.699C547.395 415.594 546.373 416.048 545.251 416.034C544.129 416.034 543.135 415.594 542.269 414.728C541.403 413.862 540.977 412.868 540.963 411.747C540.963 410.625 541.403 409.603 542.298 408.709C543.192 407.814 544.2 407.374 545.336 407.374C546.472 407.374 547.452 407.814 548.318 408.68C549.185 409.546 549.611 410.54 549.625 411.661V411.676ZM545.649 413.862C546.16 413.961 546.614 413.819 546.998 413.436C547.381 413.053 547.523 412.598 547.424 412.087C547.324 411.562 547.012 411.051 546.487 410.526C545.961 410 545.436 409.688 544.925 409.589C544.399 409.489 543.945 409.631 543.561 410.015C543.178 410.398 543.036 410.852 543.135 411.363C543.235 411.874 543.561 412.4 544.087 412.925C544.612 413.45 545.123 413.762 545.649 413.862Z" fill="white"/>
<path d="M554.666 408.34C553.771 409.234 552.763 409.674 551.641 409.66C550.519 409.646 549.525 409.205 548.674 408.34C547.807 407.474 547.367 406.494 547.353 405.387C547.339 404.279 547.765 403.272 548.645 402.391C549.398 401.639 550.207 401.227 551.087 401.142C551.968 401.057 552.763 401.298 553.501 401.866L551.769 403.598C551.087 403.158 550.491 403.186 550.008 403.683C549.625 404.067 549.483 404.507 549.582 404.989C549.682 405.486 549.994 405.983 550.519 406.508C551.045 407.033 551.542 407.332 552.025 407.417C552.507 407.516 552.948 407.374 553.317 406.991C553.885 406.423 553.899 405.77 553.317 405.032L555.035 403.314C555.688 404.01 555.986 404.819 555.93 405.742C555.873 406.664 555.461 407.53 554.666 408.311V408.34Z" fill="white"/>
<path d="M551.3 398.459L549.838 396.997L551.641 395.194L553.104 396.656L551.3 398.459ZM557.747 404.904L552.096 399.254L553.899 397.451L559.551 403.101L557.747 404.904Z" fill="white"/>
<path d="M560.402 402.235L554.751 396.585L556.483 394.853L557.25 395.62L557.279 395.591C557.08 394.527 557.35 393.632 558.088 392.908C558.699 392.298 559.38 392.014 560.119 392.057C560.857 392.099 561.553 392.44 562.192 393.079L565.869 396.756L564.066 398.558L560.757 395.251C560.445 394.938 560.133 394.768 559.792 394.74C559.465 394.711 559.153 394.839 558.869 395.123C558.571 395.421 558.443 395.762 558.486 396.173C558.528 396.585 558.713 396.954 559.068 397.309L562.192 400.432L560.388 402.235H560.402Z" fill="white"/>
<path d="M568.653 397.735L567.247 396.33L567.872 395.705C568.369 395.208 568.411 394.768 568.014 394.371C567.829 394.186 567.318 393.902 566.494 393.547L560.474 390.864L562.376 388.962L565.543 390.609L567.204 391.56L567.233 391.531C566.835 390.935 566.509 390.381 566.267 389.899L564.592 386.747L566.395 384.944L570.172 392.624C570.612 393.519 570.797 394.257 570.754 394.825C570.712 395.393 570.399 395.975 569.831 396.543L568.667 397.707L568.653 397.735Z" fill="white"/>
<path d="M698.846 536.346C697.781 537.411 696.701 538.035 695.608 538.206C694.515 538.376 693.535 538.035 692.654 537.198L694.614 535.239C695.452 535.906 696.332 535.764 697.284 534.813C697.639 534.458 697.866 534.089 697.979 533.705C698.093 533.322 698.008 532.996 697.724 532.712C697.539 532.527 697.298 532.442 697.014 532.47C696.73 532.499 696.488 532.556 696.275 532.669C696.062 532.783 695.679 532.996 695.125 533.322C695.097 533.336 695.083 533.35 695.068 533.35C695.068 533.35 695.04 533.35 695.026 533.379C695.012 533.379 694.983 533.407 694.969 533.421C694.543 533.677 694.202 533.89 693.918 534.046C693.634 534.202 693.293 534.344 692.896 534.5C692.484 534.642 692.129 534.727 691.817 534.727C691.504 534.727 691.163 534.671 690.794 534.529C690.425 534.387 690.084 534.16 689.772 533.847C688.962 533.038 688.65 532.144 688.82 531.164C688.991 530.185 689.545 529.219 690.482 528.282C691.376 527.388 692.314 526.863 693.308 526.692C694.302 526.522 695.196 526.834 696.034 527.587L694.117 529.503C693.776 529.234 693.421 529.134 693.024 529.191C692.64 529.248 692.257 529.461 691.888 529.83C691.547 530.171 691.348 530.511 691.263 530.852C691.192 531.193 691.263 531.477 691.49 531.704C691.746 531.959 692.044 532.016 692.413 531.874C692.782 531.732 693.379 531.406 694.231 530.866C694.77 530.54 695.225 530.284 695.608 530.1C695.991 529.915 696.417 529.773 696.886 529.674C697.355 529.56 697.809 529.589 698.249 529.73C698.689 529.872 699.101 530.156 699.513 530.554C700.308 531.363 700.635 532.286 700.493 533.35C700.337 534.415 699.797 535.423 698.86 536.36L698.846 536.346Z" fill="white"/>
<path d="M704.767 530.185C704.185 530.753 703.631 531.093 703.091 531.164C702.552 531.235 701.984 530.994 701.416 530.426L698.377 527.388L697.624 528.14L696.502 527.019L697.255 526.267L695.466 524.478L697.227 522.718L699.016 524.506L700.038 523.484L701.16 524.606L700.138 525.628L702.793 528.282C703.006 528.495 703.191 528.581 703.389 528.552C703.574 528.524 703.773 528.41 703.986 528.211C704.043 528.155 704.114 528.069 704.213 527.97C704.312 527.871 704.355 527.814 704.369 527.8L705.69 529.12C705.548 529.39 705.25 529.745 704.795 530.185H704.767Z" fill="white"/>
<path d="M708.26 526.849C707.678 527.431 707.067 527.743 706.4 527.8C705.747 527.856 705.15 527.601 704.596 527.062C704.028 526.494 703.801 525.883 703.915 525.23C704.043 524.591 704.398 523.882 704.98 523.115C705.463 522.49 705.761 522.05 705.889 521.752C706.016 521.454 705.974 521.227 705.789 521.042C705.392 520.645 704.923 520.687 704.412 521.213C703.858 521.766 703.801 522.32 704.227 522.859L702.566 524.52C702.026 523.938 701.799 523.243 701.87 522.434C701.941 521.624 702.381 520.815 703.191 520.006C704 519.197 704.767 518.743 705.491 518.643C706.315 518.515 707.096 518.814 707.82 519.538L710.674 522.391C711.128 522.845 711.455 523.044 711.682 523.001L711.753 523.072L710.007 524.819C709.836 524.79 709.552 524.648 709.183 524.378L709.155 524.407C709.311 525.287 709.013 526.096 708.246 526.863L708.26 526.849ZM707.692 525.117C708.033 524.776 708.217 524.407 708.232 524.009C708.26 523.612 708.118 523.257 707.806 522.959L707.138 522.292C707.053 522.561 706.84 522.959 706.513 523.513C706.229 523.953 706.073 524.307 706.045 524.563C706.002 524.819 706.102 525.06 706.3 525.259C706.712 525.685 707.181 525.628 707.706 525.117H707.692Z" fill="white"/>
<path d="M712.421 522.391L706.77 516.741L708.488 515.023L709.368 515.903L709.396 515.875C709.127 514.839 709.326 514.001 709.965 513.362C710.135 513.192 710.263 513.093 710.362 513.05L711.91 514.597L711.867 514.64C711.228 515.123 710.887 515.662 710.831 516.258C710.788 516.855 711.058 517.465 711.668 518.061L714.21 520.602L712.407 522.405L712.421 522.391Z" fill="white"/>
<path d="M719.478 515.676C718.57 516.585 717.547 517.039 716.44 517.025C715.332 517.011 714.338 516.571 713.458 515.69C712.577 514.81 712.166 513.859 712.137 512.752C712.109 511.645 712.521 510.665 713.387 509.813C714.154 509.047 715.048 508.635 716.028 508.592C717.32 508.536 718.57 509.118 719.777 510.353L715.715 514.413C716.17 514.739 716.61 514.91 717.036 514.91C717.462 514.91 717.86 514.739 718.229 514.37C718.697 513.902 718.811 513.405 718.598 512.865L720.359 511.105C720.771 511.787 720.898 512.539 720.742 513.391C720.6 514.228 720.174 514.995 719.493 515.676H719.478ZM714.636 513.32L716.866 511.091C716.496 510.779 716.113 510.622 715.73 510.622C715.332 510.622 714.991 510.764 714.693 511.063C714.054 511.701 714.04 512.454 714.636 513.32Z" fill="white"/>
<path d="M724.547 510.268L716.652 502.375L720.458 498.57C721.239 497.789 722.048 497.349 722.843 497.264C723.681 497.179 724.405 497.463 725.044 498.087C725.797 498.84 725.939 499.72 725.485 500.742L725.513 500.77C726.081 500.472 726.663 500.359 727.26 500.458C727.856 500.557 728.396 500.827 728.85 501.296C729.617 502.062 729.929 502.914 729.816 503.865C729.716 504.717 729.248 505.554 728.438 506.378L724.533 510.282L724.547 510.268ZM721.707 503.567L723.298 501.977C723.582 501.693 723.752 501.395 723.781 501.083C723.809 500.77 723.71 500.486 723.454 500.231C723.213 499.99 722.929 499.876 722.63 499.904C722.318 499.933 722.02 500.089 721.736 500.373L720.131 501.977L721.707 503.553V503.567ZM724.917 506.775L726.663 505.029C726.976 504.717 727.146 504.376 727.16 504.021C727.174 503.666 727.047 503.34 726.763 503.07C726.464 502.772 726.124 502.63 725.769 502.673C725.399 502.701 725.073 502.871 724.76 503.184L723.042 504.901L724.917 506.775Z" fill="white"/>
<path d="M725.414 496.54L723.951 495.078L725.755 493.275L727.217 494.737L725.414 496.54ZM731.846 502.971L726.195 497.321L727.998 495.518L733.65 501.168L731.846 502.971Z" fill="white"/>
<path d="M737.44 497.718C736.532 498.627 735.509 499.081 734.402 499.067C733.294 499.053 732.3 498.613 731.42 497.732C730.539 496.852 730.127 495.901 730.099 494.794C730.071 493.686 730.482 492.707 731.349 491.855C732.115 491.089 732.996 490.677 733.99 490.634C735.282 490.578 736.532 491.16 737.739 492.395L733.677 496.455C734.132 496.781 734.572 496.952 734.998 496.952C735.424 496.952 735.822 496.781 736.191 496.412C736.659 495.944 736.787 495.447 736.56 494.907L738.321 493.147C738.733 493.828 738.86 494.581 738.704 495.433C738.562 496.27 738.136 497.037 737.455 497.718H737.44ZM732.598 495.347L734.828 493.119C734.458 492.806 734.075 492.65 733.692 492.65C733.294 492.65 732.953 492.792 732.655 493.09C732.016 493.729 732.002 494.481 732.598 495.347Z" fill="white"/>
<path d="M740.707 494.112L732.812 486.219L734.629 484.402L742.524 492.295L740.707 494.112Z" fill="white"/>
<path d="M745.222 489.896C744.64 490.478 744.015 490.79 743.362 490.847C742.709 490.904 742.112 490.649 741.558 490.109C740.99 489.541 740.763 488.931 740.877 488.278C741.005 487.639 741.36 486.929 741.942 486.163C742.425 485.538 742.723 485.098 742.851 484.8C742.964 484.516 742.936 484.274 742.751 484.09C742.339 483.692 741.885 483.735 741.374 484.26C740.82 484.814 740.763 485.368 741.189 485.907L739.528 487.568C738.988 486.986 738.761 486.29 738.832 485.481C738.903 484.672 739.343 483.863 740.153 483.054C740.962 482.244 741.729 481.79 742.453 481.691C743.277 481.563 744.058 481.861 744.782 482.585L747.636 485.439C748.09 485.893 748.417 486.092 748.644 486.049L748.715 486.12L746.969 487.866C746.798 487.838 746.514 487.696 746.145 487.426L746.117 487.454C746.273 488.335 745.975 489.144 745.208 489.91L745.222 489.896ZM744.64 488.178C744.981 487.838 745.165 487.469 745.179 487.071C745.194 486.674 745.066 486.319 744.753 486.021L744.086 485.353C744.001 485.623 743.788 486.021 743.461 486.574C743.177 487.014 743.021 487.369 742.993 487.625C742.95 487.88 743.049 488.122 743.248 488.32C743.66 488.746 744.129 488.689 744.654 488.178H744.64Z" fill="white"/>
<path d="M749.383 485.453L743.731 479.803L745.464 478.071L746.231 478.837L746.259 478.809C746.074 477.744 746.33 476.85 747.068 476.126C747.679 475.515 748.361 475.232 749.099 475.274C749.837 475.317 750.533 475.657 751.172 476.296L754.85 479.973L753.047 481.776L749.738 478.468C749.426 478.156 749.113 477.986 748.772 477.957C748.446 477.929 748.133 478.057 747.849 478.34C747.551 478.639 747.423 478.979 747.466 479.391C747.509 479.803 747.693 480.172 748.048 480.527L751.172 483.65L749.369 485.453H749.383Z" fill="white"/>
<path d="M757.619 480.938L756.213 479.533L756.838 478.908C757.335 478.412 757.378 477.971 756.98 477.574C756.795 477.389 756.284 477.105 755.475 476.751L749.454 474.068L751.357 472.165L754.523 473.812L756.185 474.763L756.213 474.735C755.816 474.138 755.489 473.585 755.248 473.102L753.586 469.951L755.39 468.148L759.167 475.828C759.607 476.722 759.792 477.46 759.749 478.028C759.706 478.596 759.394 479.178 758.826 479.746L757.647 480.91L757.619 480.938Z" fill="white"/>
</g>
<defs>
<clipPath id="clip0_16_1467">
<rect width="1588" height="1973" fill="white" transform="translate(0.875 0.862762)"/>
</clipPath>
</defs>
</svg>
