<svg width="1589" height="1974" viewBox="0 0 1589 1974" fill="none" xmlns="http://www.w3.org/2000/svg">
<g clip-path="url(#clip0_22_6)">
<rect width="1588" height="1973" transform="translate(0.875 0.862762)" fill="black"/>
<path d="M384.613 -55.8072L807.926 370.594L798.906 471.387L1091.13 890.062L1158.17 910.138L1232.68 889.198L1351.4 924.576L1669.84 1488.02" stroke="#39434E" stroke-width="51"/>
<path d="M272.385 774.437L359.088 763.789L441.481 776.718L537.565 789.394L568.763 837.116L666.352 862.154L757.026 834.285L818.837 810.693L866.964 798.897L953.31 770.115L1020.78 701.699L975.014 633.282L1033.52 541.746L1070.33 485.126L1093.92 428.977L1130.72 343.575L1061.83 268.553L938.211 253.926" stroke="#FF0000" stroke-width="20"/>
<path d="M1150.97 1803.43L1101.01 1716.26L1039.38 1638.53L971.644 1573.02L930.56 1515.84L922.787 1414.23L903.355 1324.29L864.491 1247.67L840.618 1162.17L813.968 1070.57L859.494 976.183L827.848 854.595L810.637 808.514L776.215 723.013L735.13 597.539L675.724 486.499L602.993 464.292L533.594 415.434L469.191 367.687L413.116 324.937L355.93 280.521" stroke="#0070C0" stroke-width="20"/>
<path d="M372.521 264.481L364.828 256.788L366.355 255.261L374.048 262.954L372.521 264.481ZM375.87 261.132L373.63 263.373L372.419 262.162L374.625 259.956C375.018 259.564 375.225 259.16 375.248 258.745C375.278 258.323 375.131 257.95 374.806 257.625C374.49 257.308 374.116 257.169 373.686 257.207C373.249 257.237 372.815 257.467 372.385 257.897L370.27 260.012L369.138 258.881L370.926 257.093C371.333 256.686 371.552 256.286 371.582 255.894C371.612 255.502 371.48 255.159 371.186 254.865C370.877 254.555 370.526 254.416 370.134 254.446C369.742 254.476 369.353 254.684 368.968 255.068L367.147 256.89L365.936 255.679L367.792 253.824C368.637 252.979 369.496 252.504 370.371 252.398C371.246 252.293 372.012 252.568 372.668 253.224C373.105 253.662 373.336 254.171 373.358 254.752C373.388 255.325 373.207 255.898 372.815 256.471L372.476 256.132C373.192 255.581 373.894 255.31 374.58 255.317C375.274 255.317 375.889 255.585 376.424 256.121C377.133 256.83 377.439 257.625 377.341 258.508C377.243 259.375 376.752 260.25 375.87 261.132ZM380.911 248.805L380.662 250.231C380.021 249.59 379.41 249.22 378.829 249.122C378.241 249.017 377.72 249.19 377.268 249.643C376.808 250.103 376.631 250.627 376.736 251.215C376.842 251.803 377.223 252.426 377.879 253.082C378.52 253.723 379.138 254.093 379.734 254.191C380.338 254.281 380.877 254.089 381.352 253.614C381.692 253.274 381.895 252.912 381.963 252.528C382.039 252.135 381.959 251.732 381.726 251.317L383.253 249.79C383.788 250.657 383.985 251.532 383.841 252.414C383.698 253.282 383.264 254.078 382.54 254.802C381.937 255.405 381.284 255.801 380.583 255.99C379.881 256.178 379.172 256.155 378.456 255.922C377.739 255.673 377.053 255.22 376.397 254.564C375.71 253.878 375.247 253.18 375.005 252.471C374.764 251.747 374.737 251.042 374.926 250.355C375.115 249.669 375.499 249.035 376.08 248.455C376.668 247.866 377.306 247.485 377.992 247.312C378.678 247.138 379.372 247.169 380.074 247.402C380.775 247.636 381.454 248.081 382.11 248.737L382.45 249.077L377.279 254.247L376.374 253.342L380.911 248.805ZM386.274 250.728L380.21 244.664L381.658 243.216L387.722 249.28L386.274 250.728ZM384.204 245.761L383.74 246.225C383.167 245.577 382.775 244.958 382.563 244.37C382.352 243.781 382.303 243.235 382.416 242.729C382.522 242.216 382.775 241.76 383.174 241.36C383.551 240.983 383.962 240.738 384.407 240.625C384.853 240.497 385.316 240.516 385.799 240.681C386.282 240.847 386.768 241.175 387.259 241.666L391.298 245.705L389.849 247.153L386.105 243.408C385.825 243.129 385.558 242.929 385.301 242.808C385.037 242.68 384.785 242.639 384.543 242.684C384.302 242.729 384.076 242.857 383.864 243.069C383.683 243.25 383.563 243.453 383.502 243.68C383.435 243.898 383.419 244.132 383.457 244.381C383.487 244.622 383.57 244.864 383.706 245.105C383.834 245.339 384 245.558 384.204 245.761ZM387.779 242.186L387.111 242.854C386.538 242.205 386.15 241.583 385.946 240.987C385.75 240.384 385.72 239.818 385.856 239.29C385.984 238.754 386.259 238.275 386.682 237.853C387.066 237.468 387.489 237.212 387.949 237.084C388.409 236.94 388.88 236.952 389.363 237.118C389.853 237.276 390.343 237.6 390.834 238.091L394.873 242.13L393.425 243.578L389.68 239.833C389.401 239.554 389.133 239.354 388.876 239.233C388.612 239.105 388.36 239.064 388.118 239.109C387.885 239.147 387.658 239.275 387.44 239.494C387.259 239.675 387.138 239.878 387.078 240.104C387.01 240.323 386.995 240.557 387.032 240.806C387.062 241.047 387.145 241.289 387.281 241.53C387.409 241.764 387.575 241.983 387.779 242.186ZM399.001 238.34C398.398 238.944 397.749 239.336 397.055 239.517C396.369 239.69 395.671 239.656 394.962 239.415C394.246 239.166 393.559 238.714 392.903 238.057C392.217 237.371 391.753 236.673 391.512 235.964C391.27 235.24 391.244 234.535 391.433 233.849C391.621 233.162 392.01 232.525 392.598 231.937C393.194 231.341 393.839 230.96 394.532 230.794C395.226 230.613 395.932 230.647 396.648 230.896C397.357 231.137 398.043 231.59 398.707 232.254C399.386 232.932 399.842 233.63 400.076 234.347C400.318 235.056 400.344 235.753 400.155 236.44C399.974 237.118 399.59 237.752 399.001 238.34ZM397.802 237.141C398.255 236.689 398.432 236.172 398.334 235.591C398.228 235.003 397.855 234.388 397.214 233.747C396.565 233.098 395.947 232.721 395.358 232.616C394.77 232.51 394.25 232.683 393.797 233.136C393.337 233.596 393.16 234.12 393.265 234.709C393.363 235.289 393.741 235.908 394.397 236.564C395.03 237.198 395.641 237.567 396.23 237.673C396.818 237.778 397.342 237.601 397.802 237.141ZM408.077 228.925L402.918 225.961L401.866 225.203L401.934 225.135L402.669 226.21L405.645 231.358L403.846 233.156L396.096 228.778L397.646 227.228L402.896 230.532L403.993 231.267L403.914 231.346L403.212 230.215L400.101 224.773L401.606 223.268L407.048 226.38L408.156 227.104L408.077 227.183L407.33 226.097L404.038 220.836L405.52 219.354L409.887 227.115L408.077 228.925ZM415.121 222.22C414.518 222.824 413.869 223.216 413.175 223.397C412.489 223.571 411.791 223.537 411.082 223.295C410.366 223.046 409.679 222.594 409.023 221.938C408.337 221.251 407.873 220.554 407.632 219.845C407.39 219.121 407.364 218.415 407.552 217.729C407.741 217.043 408.129 216.405 408.718 215.817C409.314 215.221 409.958 214.84 410.652 214.674C411.346 214.493 412.051 214.527 412.768 214.776C413.477 215.017 414.163 215.47 414.827 216.134C415.506 216.813 415.962 217.51 416.196 218.227C416.437 218.936 416.464 219.633 416.275 220.32C416.094 220.999 415.71 221.632 415.121 222.22ZM413.922 221.021C414.375 220.569 414.552 220.052 414.454 219.471C414.348 218.883 413.975 218.268 413.334 217.627C412.685 216.978 412.067 216.601 411.478 216.496C410.89 216.39 410.369 216.564 409.917 217.016C409.457 217.476 409.28 218 409.385 218.589C409.483 219.17 409.86 219.788 410.517 220.444C411.15 221.078 411.761 221.447 412.349 221.553C412.938 221.659 413.462 221.481 413.922 221.021Z" fill="white"/>
<path d="M436.653 304.351L430.339 300.866L429.072 300.097L429.208 299.961L429.977 301.228L433.473 307.53L431.742 309.261L421.707 303.91L423.336 302.28L430.215 306.24L431.573 307.077L431.426 307.225L430.577 305.878L426.708 298.909L428.122 297.495L435.069 301.387L436.426 302.224L436.29 302.36L435.431 301.025L431.471 294.146L433.01 292.607L438.372 302.631L436.653 304.351ZM438.495 294.363L437.035 295.822C436.65 295.302 436.413 294.77 436.322 294.227C436.232 293.669 436.288 293.115 436.492 292.564C436.703 292.006 437.065 291.47 437.578 290.958C438.136 290.399 438.706 290.034 439.286 289.86C439.875 289.679 440.444 289.675 440.995 289.849C441.545 290.022 442.055 290.343 442.522 290.81L444.875 293.164C445.245 293.533 445.562 293.82 445.826 294.024C446.09 294.212 446.327 294.359 446.539 294.465L445.034 295.97C444.823 295.879 444.596 295.728 444.355 295.517C444.106 295.298 443.865 295.072 443.631 294.838L441.063 292.27C440.671 291.878 440.275 291.678 439.875 291.67C439.483 291.655 439.087 291.848 438.687 292.247C438.34 292.594 438.163 292.953 438.155 293.322C438.14 293.684 438.253 294.031 438.495 294.363ZM441.402 292.225L442.296 293.118C441.738 293.677 441.312 294.163 441.017 294.578C440.716 294.985 440.52 295.34 440.429 295.641C440.339 295.943 440.32 296.203 440.373 296.422C440.433 296.633 440.542 296.818 440.701 296.976C440.935 297.21 441.206 297.308 441.515 297.271C441.825 297.233 442.122 297.071 442.409 296.784C442.703 296.49 442.899 296.151 442.997 295.766C443.095 295.381 443.088 294.997 442.975 294.612C442.869 294.22 442.666 293.873 442.364 293.571L442.918 293.017C443.371 293.53 443.691 294.039 443.88 294.544C444.068 295.034 444.151 295.509 444.129 295.97C444.106 296.415 444.001 296.829 443.812 297.214C443.631 297.606 443.397 297.946 443.111 298.232C442.711 298.632 442.292 298.922 441.855 299.103C441.417 299.269 440.984 299.311 440.554 299.228C440.116 299.137 439.705 298.9 439.32 298.515C438.906 298.1 438.664 297.633 438.596 297.112C438.528 296.577 438.649 295.996 438.958 295.37C439.23 294.797 439.566 294.272 439.965 293.797C440.365 293.307 440.844 292.783 441.402 292.225ZM452.891 288.112L447.732 285.148L446.68 284.39L446.748 284.322L447.483 285.397L450.459 290.545L448.66 292.343L440.91 287.965L442.46 286.415L447.71 289.719L448.807 290.454L448.728 290.533L448.026 289.402L444.915 283.96L446.42 282.455L451.862 285.567L452.97 286.291L452.891 286.37L452.145 285.284L448.852 280.023L450.334 278.541L454.701 286.302L452.891 288.112ZM457.174 283.829L451.11 277.765L452.558 276.317L458.622 282.381L457.174 283.829ZM455.398 279.157L454.945 279.609C454.266 278.87 453.806 278.184 453.565 277.55C453.323 276.902 453.256 276.321 453.361 275.808C453.459 275.288 453.689 274.846 454.051 274.484C454.172 274.364 454.3 274.266 454.436 274.19C454.579 274.107 454.704 274.066 454.809 274.066L456.065 275.322C455.937 275.389 455.816 275.472 455.703 275.57C455.582 275.661 455.454 275.774 455.318 275.91C455.047 276.181 454.851 276.46 454.73 276.747C454.609 277.019 454.56 277.294 454.583 277.573C454.598 277.845 454.674 278.116 454.809 278.388C454.945 278.644 455.141 278.9 455.398 279.157ZM456.49 274.625L455.37 273.505L460.257 268.618L461.377 269.738L456.49 274.625ZM461.309 279.694L460.201 278.585L465.405 273.381L466.514 274.49L461.309 279.694ZM460.201 278.585L459.658 271.458L461.377 269.738L461.92 276.866L460.201 278.585ZM470.785 275.536C470.634 275.687 470.468 275.815 470.287 275.921C470.121 276.026 469.993 276.102 469.903 276.147L468.794 275.038L469.133 274.699C469.292 274.54 469.42 274.382 469.518 274.223C469.623 274.073 469.684 273.899 469.699 273.703C469.722 273.514 469.699 273.281 469.631 273.002C469.563 272.722 469.442 272.383 469.269 271.983L469.043 271.463L460.84 268.035L462.39 266.485L467.255 268.657L468.715 269.483L468.568 269.63L467.753 268.159L465.524 263.351L467.006 261.869L471 271.203C471.234 271.753 471.403 272.24 471.509 272.662C471.622 273.077 471.671 273.45 471.656 273.782C471.649 274.107 471.569 274.412 471.419 274.699C471.275 274.978 471.064 275.257 470.785 275.536ZM470.412 261.722C470.615 261.925 470.838 262.012 471.079 261.982C471.321 261.952 471.585 261.854 471.871 261.688C472.158 261.507 472.46 261.303 472.776 261.077C473.086 260.843 473.41 260.624 473.749 260.421C474.089 260.217 474.432 260.062 474.779 259.957C475.126 259.851 475.473 259.836 475.82 259.911C476.174 259.979 476.529 260.19 476.883 260.545C477.268 260.93 477.494 261.382 477.562 261.903C477.638 262.416 477.566 262.947 477.347 263.498C477.128 264.048 476.763 264.58 476.25 265.093C475.503 265.84 474.703 266.292 473.851 266.451C472.999 266.594 472.154 266.353 471.317 265.727L472.765 264.279C473.142 264.55 473.542 264.656 473.964 264.595C474.394 264.527 474.798 264.305 475.175 263.928C475.537 263.566 475.741 263.226 475.786 262.91C475.824 262.585 475.733 262.314 475.514 262.095C475.318 261.899 475.099 261.816 474.858 261.846C474.617 261.876 474.357 261.978 474.077 262.152C473.806 262.317 473.512 262.514 473.195 262.74C472.886 262.959 472.569 263.17 472.245 263.373C471.913 263.57 471.573 263.72 471.226 263.826C470.879 263.916 470.533 263.924 470.186 263.849C469.831 263.766 469.477 263.547 469.122 263.192C468.79 262.861 468.571 262.468 468.466 262.016C468.353 261.556 468.379 261.062 468.545 260.534C468.711 260.006 469.058 259.478 469.586 258.95C470.054 258.482 470.548 258.139 471.068 257.92C471.588 257.701 472.128 257.63 472.686 257.705C473.252 257.773 473.813 258.033 474.372 258.486L472.923 259.934C472.494 259.625 472.094 259.497 471.724 259.549C471.362 259.595 471.008 259.791 470.661 260.138C470.374 260.424 470.212 260.715 470.174 261.009C470.144 261.295 470.223 261.533 470.412 261.722ZM474.51 256.605L473.39 255.485L478.277 250.598L479.397 251.718L474.51 256.605ZM479.33 261.674L478.221 260.565L483.425 255.361L484.534 256.469L479.33 261.674ZM478.221 260.565L477.678 253.437L479.397 251.718L479.941 258.845L478.221 260.565ZM486.58 247.137L486.331 248.563C485.69 247.921 485.079 247.552 484.499 247.454C483.91 247.348 483.39 247.522 482.937 247.974C482.477 248.434 482.3 248.959 482.406 249.547C482.511 250.135 482.892 250.757 483.548 251.414C484.189 252.055 484.808 252.424 485.404 252.522C486.007 252.613 486.546 252.421 487.022 251.945C487.361 251.606 487.565 251.244 487.633 250.859C487.708 250.467 487.629 250.063 487.395 249.649L488.922 248.121C489.458 248.989 489.654 249.864 489.511 250.746C489.367 251.613 488.934 252.409 488.21 253.133C487.606 253.737 486.954 254.133 486.252 254.321C485.551 254.51 484.842 254.487 484.125 254.253C483.409 254.004 482.722 253.552 482.066 252.896C481.38 252.209 480.916 251.512 480.675 250.803C480.433 250.079 480.407 249.373 480.595 248.687C480.784 248.001 481.169 247.367 481.749 246.786C482.338 246.198 482.975 245.817 483.661 245.644C484.348 245.47 485.042 245.5 485.743 245.734C486.445 245.968 487.123 246.413 487.78 247.069L488.119 247.409L482.949 252.579L482.044 251.674L486.58 247.137ZM497.24 243.763L492.081 240.799L491.029 240.041L491.097 239.973L491.832 241.048L494.808 246.196L493.009 247.995L485.259 243.616L486.809 242.066L492.058 245.37L493.156 246.105L493.077 246.184L492.375 245.053L489.264 239.611L490.769 238.106L496.211 241.218L497.319 241.942L497.24 242.021L496.493 240.935L493.201 235.674L494.683 234.192L499.05 241.953L497.24 243.763Z" fill="white"/>
<path d="M495.318 347.838L489.005 344.353L487.737 343.584L487.873 343.448L488.642 344.715L492.138 351.017L490.407 352.748L480.372 347.397L482.001 345.768L488.88 349.727L490.238 350.565L490.091 350.712L489.242 349.365L485.373 342.396L486.787 340.982L493.734 344.874L495.091 345.711L494.956 345.847L494.096 344.512L490.136 337.633L491.675 336.094L497.037 346.118L495.318 347.838ZM497.16 337.85L495.7 339.31C495.315 338.789 495.078 338.257 494.987 337.714C494.897 337.156 494.953 336.602 495.157 336.051C495.368 335.493 495.73 334.958 496.243 334.445C496.801 333.886 497.371 333.521 497.952 333.347C498.54 333.166 499.109 333.162 499.66 333.336C500.21 333.509 500.72 333.83 501.187 334.298L503.54 336.651C503.91 337.02 504.227 337.307 504.491 337.511C504.755 337.699 504.992 337.846 505.204 337.952L503.699 339.457C503.488 339.366 503.261 339.215 503.02 339.004C502.771 338.785 502.53 338.559 502.296 338.325L499.728 335.757C499.336 335.365 498.94 335.165 498.54 335.157C498.148 335.142 497.752 335.335 497.352 335.734C497.005 336.081 496.828 336.44 496.82 336.809C496.805 337.171 496.918 337.518 497.16 337.85ZM500.067 335.712L500.961 336.606C500.403 337.164 499.977 337.65 499.683 338.065C499.381 338.472 499.185 338.827 499.094 339.129C499.004 339.43 498.985 339.69 499.038 339.909C499.098 340.12 499.207 340.305 499.366 340.464C499.6 340.697 499.871 340.795 500.18 340.758C500.49 340.72 500.787 340.558 501.074 340.271C501.368 339.977 501.564 339.638 501.662 339.253C501.76 338.868 501.753 338.484 501.64 338.099C501.534 337.707 501.331 337.36 501.029 337.058L501.583 336.504C502.036 337.017 502.356 337.526 502.545 338.031C502.733 338.521 502.816 338.997 502.794 339.457C502.771 339.902 502.666 340.316 502.477 340.701C502.296 341.093 502.062 341.433 501.776 341.719C501.376 342.119 500.957 342.409 500.52 342.59C500.082 342.756 499.649 342.798 499.219 342.715C498.781 342.624 498.37 342.387 497.985 342.002C497.571 341.587 497.329 341.12 497.261 340.599C497.194 340.064 497.314 339.483 497.623 338.857C497.895 338.284 498.231 337.76 498.63 337.284C499.03 336.794 499.509 336.27 500.067 335.712ZM511.556 331.599L506.397 328.635L505.345 327.877L505.413 327.809L506.148 328.884L509.124 334.032L507.325 335.831L499.575 331.452L501.125 329.902L506.375 333.206L507.472 333.941L507.393 334.02L506.691 332.889L503.58 327.447L505.085 325.942L510.527 329.054L511.635 329.778L511.556 329.857L510.81 328.771L507.517 323.51L508.999 322.028L513.366 329.789L511.556 331.599ZM515.839 327.317L509.775 321.252L511.223 319.804L517.287 325.868L515.839 327.317ZM514.063 322.644L513.61 323.097C512.931 322.357 512.471 321.671 512.23 321.037C511.989 320.389 511.921 319.808 512.026 319.295C512.124 318.775 512.354 318.333 512.716 317.971C512.837 317.851 512.965 317.753 513.101 317.677C513.244 317.594 513.369 317.553 513.474 317.553L514.73 318.809C514.602 318.877 514.481 318.959 514.368 319.058C514.247 319.148 514.119 319.261 513.983 319.397C513.712 319.668 513.516 319.948 513.395 320.234C513.275 320.506 513.225 320.781 513.248 321.06C513.263 321.332 513.339 321.603 513.474 321.875C513.61 322.131 513.806 322.388 514.063 322.644ZM515.155 318.112L514.035 316.992L518.922 312.105L520.042 313.225L515.155 318.112ZM519.974 323.181L518.866 322.072L524.07 316.868L525.179 317.977L519.974 323.181ZM518.866 322.072L518.323 314.945L520.042 313.225L520.585 320.353L518.866 322.072ZM529.45 319.023C529.299 319.174 529.133 319.302 528.952 319.408C528.786 319.513 528.658 319.589 528.568 319.634L527.459 318.525L527.798 318.186C527.957 318.027 528.085 317.869 528.183 317.711C528.288 317.56 528.349 317.386 528.364 317.19C528.387 317.002 528.364 316.768 528.296 316.489C528.228 316.21 528.107 315.87 527.934 315.47L527.708 314.95L519.505 311.522L521.055 309.972L525.92 312.144L527.38 312.97L527.233 313.117L526.418 311.646L524.189 306.838L525.671 305.356L529.665 314.69C529.899 315.24 530.069 315.727 530.174 316.149C530.287 316.564 530.336 316.937 530.321 317.269C530.314 317.594 530.234 317.899 530.084 318.186C529.94 318.465 529.729 318.744 529.45 319.023ZM529.077 305.209C529.281 305.412 529.503 305.499 529.744 305.469C529.986 305.439 530.25 305.341 530.536 305.175C530.823 304.994 531.125 304.79 531.441 304.564C531.751 304.33 532.075 304.111 532.414 303.908C532.754 303.704 533.097 303.549 533.444 303.444C533.791 303.338 534.138 303.323 534.485 303.398C534.839 303.466 535.194 303.678 535.548 304.032C535.933 304.417 536.159 304.869 536.227 305.39C536.303 305.903 536.231 306.434 536.012 306.985C535.793 307.536 535.428 308.067 534.915 308.58C534.168 309.327 533.369 309.779 532.516 309.938C531.664 310.081 530.819 309.84 529.982 309.214L531.43 307.766C531.807 308.037 532.207 308.143 532.629 308.082C533.059 308.014 533.463 307.792 533.84 307.415C534.202 307.053 534.406 306.713 534.451 306.397C534.489 306.072 534.398 305.801 534.179 305.582C533.983 305.386 533.765 305.303 533.523 305.333C533.282 305.363 533.022 305.465 532.743 305.639C532.471 305.805 532.177 306.001 531.86 306.227C531.551 306.446 531.234 306.657 530.91 306.86C530.578 307.057 530.238 307.207 529.891 307.313C529.544 307.404 529.198 307.411 528.851 307.336C528.496 307.253 528.142 307.034 527.787 306.679C527.455 306.348 527.237 305.955 527.131 305.503C527.018 305.043 527.044 304.549 527.21 304.021C527.376 303.493 527.723 302.965 528.251 302.437C528.719 301.969 529.213 301.626 529.733 301.407C530.253 301.189 530.793 301.117 531.351 301.192C531.917 301.26 532.479 301.52 533.037 301.973L531.589 303.421C531.159 303.112 530.759 302.984 530.389 303.036C530.027 303.082 529.673 303.278 529.326 303.625C529.039 303.911 528.877 304.202 528.839 304.496C528.809 304.783 528.888 305.02 529.077 305.209ZM533.175 300.092L532.055 298.972L536.942 294.085L538.063 295.205L533.175 300.092ZM537.995 305.161L536.886 304.052L542.09 298.848L543.199 299.957L537.995 305.161ZM536.886 304.052L536.343 296.924L538.063 295.205L538.606 302.332L536.886 304.052ZM545.245 290.624L544.996 292.05C544.355 291.408 543.744 291.039 543.164 290.941C542.575 290.835 542.055 291.009 541.602 291.461C541.142 291.921 540.965 292.446 541.071 293.034C541.176 293.622 541.557 294.244 542.213 294.901C542.854 295.542 543.473 295.911 544.069 296.009C544.672 296.1 545.211 295.908 545.687 295.432C546.026 295.093 546.23 294.731 546.298 294.346C546.373 293.954 546.294 293.551 546.06 293.136L547.587 291.608C548.123 292.476 548.319 293.351 548.176 294.233C548.032 295.101 547.599 295.896 546.875 296.62C546.271 297.224 545.619 297.62 544.917 297.808C544.216 297.997 543.507 297.974 542.79 297.74C542.074 297.491 541.387 297.039 540.731 296.383C540.045 295.696 539.581 294.999 539.34 294.29C539.098 293.566 539.072 292.86 539.26 292.174C539.449 291.488 539.834 290.854 540.414 290.273C541.003 289.685 541.64 289.304 542.326 289.131C543.013 288.957 543.707 288.987 544.408 289.221C545.11 289.455 545.788 289.9 546.445 290.556L546.784 290.896L541.614 296.066L540.709 295.161L545.245 290.624ZM555.905 287.25L550.746 284.286L549.694 283.528L549.762 283.46L550.497 284.535L553.473 289.683L551.674 291.482L543.924 287.103L545.474 285.553L550.723 288.857L551.821 289.592L551.742 289.672L551.04 288.54L547.929 283.098L549.434 281.594L554.876 284.705L555.984 285.429L555.905 285.508L555.158 284.422L551.866 279.161L553.348 277.679L557.715 285.44L555.905 287.25Z" fill="white"/>
</g>
<defs>
<clipPath id="clip0_22_6">
<rect width="1588" height="1973" fill="white" transform="translate(0.875 0.862762)"/>
</clipPath>
</defs>
</svg>
